<?xml version="1.0" encoding="utf-8"?>
<!-- Generator: Adobe Illustrator 26.1.0, SVG Export Plug-In . SVG Version: 6.00 Build 0)  -->
<svg version="1.1" id="Capa_1" xmlns="http://www.w3.org/2000/svg" xmlns:xlink="http://www.w3.org/1999/xlink" x="0px" y="0px"
	 viewBox="0 0 717.46 388.52" style="enable-background:new 0 0 717.46 388.52;" xml:space="preserve">
<style type="text/css">
	.st0{clip-path:url(#SVGID_00000042723442357534595250000010966546807835122357_);}
	.st1{clip-path:url(#SVGID_00000001631939733855714260000017462485267759804586_);}
	.st2{fill:#FFFFFF;}
	.st3{opacity:0.6;fill:#FF9B04;}
	.st4{fill:none;stroke:#FF9B04;stroke-width:0;stroke-miterlimit:10;}
	.st5{fill:#ECF1FD;}
	.st6{fill:url(#SVGID_00000099656782377721002140000011726499633783513012_);}
	.st7{fill:none;stroke:#FF9B04;stroke-width:2;stroke-miterlimit:10;}
	.st8{fill:url(#SVGID_00000057837346818213078740000014053946623420926871_);}
	.st9{fill:none;stroke:#B3B3B3;stroke-width:2;stroke-miterlimit:10;}
	.st10{fill:#FF9B04;}
	.st11{fill-rule:evenodd;clip-rule:evenodd;fill:#6689C9;}
	.st12{fill-rule:evenodd;clip-rule:evenodd;fill:#4DB74B;}
	.st13{fill-rule:evenodd;clip-rule:evenodd;fill:#FFCD05;}
	.st14{fill-rule:evenodd;clip-rule:evenodd;fill:#E22F31;}
	.st15{fill-rule:evenodd;clip-rule:evenodd;fill:#FEFEFE;}
	.st16{fill:url(#SVGID_00000072989363124181752700000013865455192873902725_);}
	.st17{fill:none;stroke:#333333;stroke-width:2;stroke-miterlimit:10;}
	.st18{fill:url(#SVGID_00000070830205305880429260000000613745052336239773_);}
	.st19{fill:#E55773;}
	.st20{fill:#FF8888;}
	.st21{fill:#FF7D7D;}
	.st22{fill:#FF505C;}
	.st23{fill:#FC3C4C;}
	.st24{fill:#1F0D52;}
	.st25{fill:#5F40D5;}
	.st26{fill:#32187C;}
	.st27{fill:#FFE49B;}
	.st28{fill:#FFBE7D;}
	.st29{fill:#FF4A5A;}
	.st30{fill:#7464E0;}
	.st31{fill:#B1A6FF;}
	.st32{fill:#6B5AE4;}
	.st33{fill:#D3E7EC;}
	.st34{fill:#B8D3D8;}
	.st35{fill-rule:evenodd;clip-rule:evenodd;fill:#32187C;}
	.st36{fill-rule:evenodd;clip-rule:evenodd;fill:#11B2D8;}
	.st37{fill-rule:evenodd;clip-rule:evenodd;fill:#FFFFFF;}
	.st38{fill:#FF5F00;}
	.st39{fill:#11B2D8;}
	.st40{clip-path:url(#SVGID_00000037658601820627090350000000814871958923889796_);}
	.st41{fill:#D4DEFF;}
	.st42{fill:#060673;}
	.st43{fill:#5A47E2;}
	.st44{fill:#9EB0FF;}
	.st45{fill:#FF6B79;}
	.st46{fill:url(#SVGID_00000133491910180769118710000006950499153225680513_);}
	.st47{fill:url(#SVGID_00000078736722940380759580000005533017053781816710_);}
	.st48{fill:#0F00A7;}
	.st49{fill:url(#SVGID_00000021808069494822128440000006253036293759176858_);}
	.st50{fill:url(#SVGID_00000030488463072704385370000016213812407401225142_);}
	.st51{fill:url(#SVGID_00000055707530577943430370000002124396204969589939_);}
	.st52{fill:#FF5464;}
	.st53{fill:url(#SVGID_00000159472274793448945170000014492785025927626132_);}
	.st54{fill:#FF3D53;}
	.st55{fill:#070040;}
	.st56{fill:url(#SVGID_00000131326480289560777680000017792391577906133130_);}
	.st57{fill:#FFB000;}
	.st58{fill:url(#SVGID_00000106129382235448208320000015745859883304257419_);}
	.st59{opacity:0.3;fill:#E55773;}
	.st60{fill:url(#SVGID_00000021798968653799916610000013889807453068410768_);}
	.st61{fill:#858686;}
	.st62{fill:url(#SVGID_00000036239202141908618250000006872622723881758142_);}
	.st63{clip-path:url(#SVGID_00000157997190030603533900000017488963771450048655_);}
	.st64{fill:#B9DAE1;}
	.st65{fill:#E5F0F3;}
	.st66{fill:#FF7C27;}
	.st67{clip-path:url(#SVGID_00000045607605292022113590000011353373211642877608_);}
	.st68{fill:url(#SVGID_00000133518181920163678510000010087267787177704356_);}
	.st69{fill:url(#SVGID_00000097487519781457527700000008440541713444014505_);}
	.st70{fill:#FFD400;}
	.st71{fill:url(#SVGID_00000068655240394257020230000014106347167189320120_);}
	.st72{fill:url(#SVGID_00000171712773351374385310000014261266339817906575_);}
	.st73{fill:url(#SVGID_00000077313294121857473630000017616137393925111724_);}
	.st74{clip-path:url(#SVGID_00000136397854606907355690000008495557321330326700_);}
	.st75{fill:url(#SVGID_00000017490629105239764250000010275760954490595754_);}
	.st76{fill:url(#SVGID_00000168836503055778629140000018123955746136582841_);}
	.st77{fill:url(#SVGID_00000095300524536315852780000006001001264313853848_);}
	.st78{fill:#29ABE2;}
	.st79{fill:url(#SVGID_00000136386776397221304890000000953851718520815549_);}
	.st80{fill:url(#SVGID_00000173121837777441258220000003718465187331951526_);}
	.st81{fill:url(#SVGID_00000160181431351819581200000015735523470168973210_);}
	.st82{fill:url(#SVGID_00000019667934288010639320000007784349531382149802_);}
	.st83{fill:url(#SVGID_00000067931248246773757160000012505149696842218933_);}
	.st84{fill:url(#SVGID_00000079478961844403014830000007297877060405702583_);}
	.st85{fill:url(#SVGID_00000049184067001267814220000001522455644986047155_);}
	.st86{fill:url(#SVGID_00000145031258002070597240000009491662373696120733_);}
	.st87{fill:url(#SVGID_00000097486173185276766820000016651907769503713699_);}
	.st88{fill:none;stroke:#FF9B04;stroke-miterlimit:10;}
	.st89{fill:url(#SVGID_00000081650226379749976630000000034876450731635848_);}
	.st90{fill:none;stroke:#FF9B04;stroke-width:3;stroke-miterlimit:10;}
	.st91{fill:#F22927;}
	.st92{fill:url(#SVGID_00000179621333319872255810000005993235036655025813_);}
	.st93{fill:url(#SVGID_00000160892838212199865210000005176134508162199433_);}
	.st94{fill:url(#SVGID_00000053528847554613399250000001929911729675607204_);}
	.st95{fill:url(#SVGID_00000109724607451846282010000017265819186700465570_);}
	.st96{fill:url(#SVGID_00000028296317711345608240000005173962150552304815_);}
	.st97{fill:#E6E6E6;}
	.st98{fill:url(#SVGID_00000096046103377269471090000014269397866231081875_);}
	.st99{opacity:0.5;}
	.st100{fill:#E0E3E6;}
	.st101{fill:url(#SVGID_00000060024416672538884430000006257633727968574380_);}
	.st102{fill:url(#SVGID_00000025404600617416623580000008156242851733891463_);}
	.st103{fill:#B3B3B3;}
	.st104{fill:url(#SVGID_00000175290015915720715320000006247749326690428834_);}
	.st105{fill:url(#SVGID_00000051350222157415327480000002241944908967497889_);}
	.st106{fill:url(#SVGID_00000046302821806131951500000014692724120006626216_);}
	.st107{fill:#0697D6;}
	.st108{fill:#59C8E2;}
	.st109{fill:url(#SVGID_00000042730751105666567330000007044558186830694045_);}
	.st110{fill:url(#SVGID_00000052093804737620859000000016022492109309961389_);}
	.st111{fill:url(#SVGID_00000134241265615134359360000011124034935293548455_);}
	.st112{fill:url(#SVGID_00000014609624500950818740000004690874470165330089_);}
	.st113{fill:url(#SVGID_00000099660520110975733410000011990050174637440687_);}
	.st114{fill:url(#SVGID_00000053511389525654496050000005459812400089537948_);}
	.st115{fill:url(#SVGID_00000181072140339473091290000003291386409399210899_);}
	.st116{fill:url(#SVGID_00000130607412931988393240000018087256372283633537_);}
	.st117{fill:url(#SVGID_00000080177836651359885550000008041024740113621950_);}
	.st118{fill:url(#SVGID_00000107571298885764145890000000546638061275985303_);}
	.st119{fill:url(#SVGID_00000139984753760632293850000004544811118735303055_);}
</style>
<g>
	<g>
		
			<linearGradient id="SVGID_00000139293173279311410500000009380872030455255191_" gradientUnits="userSpaceOnUse" x1="213.5943" y1="207.3419" x2="675.0573" y2="207.3419">
			<stop  offset="0" style="stop-color:#FF9B04"/>
			<stop  offset="1" style="stop-color:#FF5F00"/>
		</linearGradient>
		<path style="fill:url(#SVGID_00000139293173279311410500000009380872030455255191_);" d="M512.23,118.24
			c-4.55,0-8.13-1.47-10.76-4.41c-2.63-2.94-3.94-7.24-3.94-12.91c0-3.15,0.34-5.79,1.02-7.92c0.68-2.13,1.66-3.85,2.92-5.14
			c1.27-1.29,2.81-2.24,4.63-2.83c1.82-0.59,3.9-0.89,6.23-0.89c4.87,0,8.57,1.33,11.1,3.99c2.53,2.66,3.8,6.93,3.8,12.8
			c0,5.46-1.28,9.71-3.85,12.75C520.82,116.72,517.1,118.24,512.23,118.24z M499.47,138.91h24.64v144.51h-24.64V138.91z
			 M546.82,92.53h24.64v190.89h-24.64V92.53z M604.8,311.29c3.3-0.8,6.13-2.33,8.5-4.57c2.37-2.24,4.26-5.19,5.67-8.87
			c1.41-3.67,2.22-8.06,2.42-13.17L587.8,139.34h26.48l14.94,79.97l4.33,27.6h0.82l2.99-27.6l12.05-79.97h25.65L645.18,289.2
			c-1.31,6.93-2.97,12.98-5,18.16c-2.03,5.18-4.53,9.48-7.52,12.91c-2.99,3.43-6.54,6-10.66,7.71c-4.12,1.71-8.93,2.57-14.42,2.57
			c-4.47,0-9.03-0.88-13.7-2.62l0.1-16.27C597.9,312.22,601.5,312.1,604.8,311.29z M274.48,124.08v-21.72h-60.88v0v21.72v61.13h0
			v21.72h0v76.49h21.72v-76.49h24.58v-21.72h-24.58v-61.13H274.48z M469.66,147.23c-6.82-6.61-21.11-10.77-31.67-7.04
			c-7.94,2.81-12.02,8.09-13.55,10.53c-0.92-1.15-1.97-2.31-3.19-3.49c-6.82-6.61-21.11-10.77-31.67-7.04
			c-4.92,1.74-8.34,4.42-10.61,6.8l-3.66-5.9h-13.39l-1.37,1.17v25.05v116.11h21.88v-108.9c0.02-1.33,0.31-6.73,3.76-9.87
			c3.95-3.6,8.07-3.6,10.04-3.68c1.97-0.09,6.75,0.7,9.96,4.04c2.25,2.35,2.7,5.19,2.77,6.68v111.75h21.88V174.51
			c0.02-1.33,0.32-6.73,3.76-9.87c3.95-3.6,8.07-3.6,10.04-3.68c1.97-0.09,6.75,0.7,9.96,4.04c2.25,2.35,2.7,5.19,2.77,6.68v111.75
			h21.88V167.31C478.25,159.82,476.48,153.84,469.66,147.23z M340.04,170.29v-0.79h-0.03c-0.2-3.71-1.29-11.81-6.83-18.4
			c-7.44-8.85-14.25-11.52-24.5-11.59c-10.25-0.07-19.17,2.67-25.07,8.99c-5.9,6.32-7.44,9.83-7.44,9.83l17.69,12.08
			c0,0,3.23-6.53,8.85-8.71c5.62-2.18,14.67,0,15.27,7.79v11.45c-3.33,3.31-8.23,7.59-15.35,12.67
			c-17.47,12.45-28.66,27.75-31.18,43.74c-2.51,15.99,0.8,35.17,12.79,43.74c10.64,7.6,28.44,7.96,37.19-4.72v0.15l3.72,6.9h13.33
			l1.55-1.5v-5.65v-1.76V171.53C340.04,171.53,340.06,171.07,340.04,170.29z M316.15,254.48c-2.27,4.56-5.95,8.91-11.97,9.04
			c-11.14,0.25-14.01-9.2-13.67-17.47s3.21-15.86,12.07-25.06c4.19-4.35,9.31-8.11,13.57-10.89V254.48z"/>
		<path class="st107" d="M98.04,139.24h26.43c1.42,0.38,2.49,1.7,2.34,3.21c0,17.78,0,35.57,0,53.35
			c-0.03,10.24,0.1,20.49-0.06,30.73c-10.22,0.09-20.44,0-30.67,0.04c-17.82,0-35.64,0.02-53.46-0.01c-1.7,0.12-3.27-1.36-3.13-3.08
			c-0.03-8.13-0.01-16.27-0.01-24.4c-0.19-1.78,1.33-3.45,3.14-3.27c17.81-0.02,35.62-0.01,53.44,0
			c0.08-17.94-0.02-35.88,0.05-53.82C96.01,140.69,97.11,139.89,98.04,139.24L98.04,139.24z"/>
		<path class="st108" d="M126.8,195.8c17.82-0.01,35.65-0.03,53.47,0.01c1.47-0.15,2.54,0.98,3.2,2.14v26.64
			c-0.77,1-1.75,2.1-3.14,1.97c-17.83,0.06-35.67-0.03-53.51,0.05c-0.03,17.67-0.01,35.35-0.01,53.03c0.01,0.98-0.14,2.05-0.93,2.72
			c-0.81,0.87-2.07,0.77-3.14,0.79c-7.84-0.04-15.68,0-23.51-0.02c-1.7,0.19-3.29-1.33-3.14-3.04c-0.01-17.84,0-35.68-0.01-53.51
			c10.22-0.04,20.44,0.05,30.67-0.04C126.9,216.29,126.77,206.04,126.8,195.8L126.8,195.8z"/>
	</g>
	
		<linearGradient id="SVGID_00000011019935546611381870000008102813968750605450_" gradientUnits="userSpaceOnUse" x1="286.1971" y1="88.5426" x2="479.2315" y2="88.5426">
		<stop  offset="0" style="stop-color:#FF9B04"/>
		<stop  offset="1" style="stop-color:#FF5F00"/>
	</linearGradient>
	<path style="fill:url(#SVGID_00000011019935546611381870000008102813968750605450_);" d="M478.41,90.79
		c-0.55-0.51-1.33-0.76-2.34-0.76c-0.97,0-1.86,0.09-2.66,0.25c-0.21-0.93-0.47-1.57-0.79-1.93c-0.32-0.36-0.94-0.54-1.87-0.54
		c-2.91,0-5.66,0.92-8.25,2.75c-2.59,1.83-4.67,4.26-6.23,7.27c-1.56,3.01-2.34,6.21-2.34,9.58c0,0.06,0,0.12,0.01,0.17
		c-0.7,0.69-1.34,1.26-1.9,1.69c-1.31,0.99-2.83,1.49-4.55,1.49c-1.1,0-1.98-0.37-2.66-1.11c-0.67-0.74-1.16-1.97-1.45-3.7
		c4.76-6.49,8.54-13.05,11.32-19.67c2.78-6.62,4.17-12.44,4.17-17.46c0-3.5-0.58-6.19-1.74-8.06c-1.16-1.88-2.75-2.81-4.77-2.81
		c-3.58,0-6.67,2.36-9.26,7.08c-2.59,4.72-4.55,10.37-5.88,16.95c-1.33,6.58-1.99,12.44-1.99,17.58c0,1.98,0.12,3.83,0.37,5.54
		c-1.59,1.72-3.4,3.17-5.46,4.3c-2.42,1.33-4.58,1.99-6.48,1.99c-2.95,0-4.95-0.97-6.01-2.91c4.97-1.22,8.51-2.88,10.59-4.97
		c2.09-2.09,3.13-4.58,3.13-7.49c0-2.49-0.74-4.46-2.21-5.91c-1.48-1.45-3.44-2.18-5.88-2.18c-2.74,0-5.2,0.74-7.37,2.21
		c-2.17,1.48-3.87,3.47-5.09,5.98c-1.22,2.51-1.83,5.22-1.83,8.13c0,0.94,0.07,1.84,0.2,2.69c-0.87,0.95-1.62,1.71-2.25,2.27
		c-1.16,1.03-2.16,1.55-3,1.55c-0.55,0-0.99-0.22-1.33-0.66c-0.34-0.44-0.51-1.06-0.51-1.87c0-1.26,0.59-4.59,1.77-9.99
		c1.05-4.72,1.58-7.61,1.58-8.66c0-0.63-0.19-1.06-0.57-1.3c-0.38-0.23-1.05-0.35-2.02-0.35c-1.39,0-2.43,0.27-3.13,0.82
		c-0.7,0.55-1.21,1.45-1.55,2.72c-1.01,3.75-2.06,6.92-3.13,9.49c-1.08,2.57-2.09,4.49-3.04,5.75c-0.95,1.26-1.74,1.9-2.37,1.9
		c-0.46,0-0.8-0.18-1.01-0.54c-0.21-0.36-0.32-0.98-0.32-1.87c0-1.48,0.42-4.43,1.26-8.85c0.25-1.26,0.59-2.68,1.01-4.24
		c0.46-1.94,0.7-3.08,0.7-3.41c0-0.59-0.18-1.03-0.54-1.33c-0.36-0.29-1-0.44-1.93-0.44c-1.64,0-2.85,0.27-3.6,0.82
		c-0.76,0.55-1.35,1.45-1.77,2.72c-0.97,2.95-1.67,5.75-2.09,8.38c-0.3,1.89-0.49,3.93-0.58,6.09c-1.42,1.46-2.87,2.61-4.32,3.46
		c-2,1.16-3.87,1.74-5.6,1.74c-4.26,0-6.39-2.44-6.39-7.34c0-1.77,0.25-3.39,0.76-4.87c0.51-1.48,1.18-2.65,2.02-3.51
		c0.84-0.86,1.75-1.3,2.72-1.3c0.51,0,0.9,0.15,1.17,0.44c0.27,0.3,0.41,0.72,0.41,1.26c0,0.55-0.11,1.14-0.32,1.77
		c-0.04,0.17-0.11,0.44-0.19,0.82c-0.09,0.38-0.13,0.72-0.13,1.01c0,0.67,0.24,1.2,0.73,1.58c0.48,0.38,1.13,0.57,1.93,0.57
		c1.26,0,2.29-0.61,3.07-1.83c0.78-1.22,1.17-2.72,1.17-4.49c0-2.15-0.64-3.91-1.93-5.28c-1.29-1.37-3.09-2.06-5.41-2.06
		c-2.36,0-4.62,0.7-6.77,2.09c-2.15,1.39-3.9,3.37-5.25,5.94c-1.35,2.57-2.02,5.57-2.02,8.98c0,0.73,0.05,1.42,0.14,2.1
		c-1.75,1.8-3.34,2.98-4.75,3.53c0.08-0.76,0.13-1.35,0.13-1.77c0-1.48-0.35-2.83-1.04-4.08c-0.7-1.24-1.72-2.75-3.07-4.52
		c-0.93-1.14-1.61-2.09-2.06-2.85c-0.44-0.76-0.66-1.45-0.66-2.09c0-1.05,0.38-2.34,1.14-3.86c0.29-0.55,0.53-1.1,0.7-1.64
		c0.17-0.55,0.25-0.95,0.25-1.2c0-0.46-0.23-0.8-0.7-1.01c-0.46-0.21-1.29-0.32-2.47-0.32c-2.53,0-4.2,0.93-5,2.78
		c-0.93,2.19-1.88,4.31-2.85,6.36c-0.97,2.04-1.81,3.68-2.53,4.9c-1.18,1.86-2.93,4.22-5.25,7.08l-0.26,0.32
		c-1.15,1.06-2.2,1.86-2.99,2.02c-5.42,1.06-10.62-0.11-13.92-2.27c-3.3-2.17-5.44-5.73-6.42-10.7l-0.04-0.19l21.97-4.31
		c1.65-0.32,2.96-0.85,3.91-1.57c0.95-0.72,1.59-1.72,1.9-2.98c0.29-1.13,0.4-2.98,0.33-5.54c-0.07-2.56-0.27-4.65-0.58-6.27
		c-0.92-4.72-2.83-8.17-5.7-10.35c-2.88-2.18-6.72-2.81-11.51-1.87c-4.01,0.79-7.53,2.43-10.54,4.93c-3.01,2.5-5.34,5.68-6.99,9.52
		c-1.65,3.85-2.49,8.14-2.5,12.86c-0.51,0.01-0.86,0-1.04-0.05c-0.57-0.06-1.08-0.35-1.52-0.86c-0.33-0.36-0.64-0.68-0.93-0.95
		c-0.29-0.27-0.61-0.45-0.98-0.55c-0.45-0.13-1.03-0.12-1.74,0.02c-0.99,0.19-1.73,0.75-2.22,1.66c-0.49,0.91-0.56,2.22-0.23,3.91
		c0.22,1.12,0.76,2.06,1.62,2.84c0.86,0.78,1.77,1.22,2.74,1.33c1.41,0.2,3.04,0.18,4.89-0.06l0.27,1.36
		c0.86,4.39,2.59,8.04,5.18,10.97c2.59,2.93,5.89,4.94,9.88,6.02c3.99,1.08,8.36,0.23,13.38,0.18c1.25-0.01,2.29-0.26,3.2-0.64
		c0.06-0.02,0.11-0.04,0.17-0.06c0.02-0.01,0.03-0.02,0.05-0.02c0.08-0.04,0.16-0.07,0.23-0.11c7.93-3.58,11.46-14.73,11.46-14.73
		c0.59,0.67,1.22,1.47,1.9,2.37c0.67,0.91,1.23,1.84,1.68,2.81c0.44,0.97,0.68,2,0.73,3.1c-0.38-0.04-0.94-0.12-1.68-0.22
		c-0.74-0.11-1.38-0.16-1.93-0.16c-1.56,0-2.74,0.4-3.54,1.2c-0.8,0.8-1.2,1.75-1.2,2.85c0,1.26,0.58,2.4,1.74,3.41
		c1.16,1.01,2.84,1.52,5.03,1.52c2.32,0,4.32-0.72,6.01-2.15c2.82-0.08,5.2-0.6,7.11-1.55c1.12-0.55,2.27-1.4,3.46-2.52
		c0.33,0.46,0.69,0.9,1.1,1.32c2.3,2.34,5.51,3.51,9.64,3.51c2.57,0,5.24-0.66,8-1.99c1.44-0.69,2.77-1.54,4-2.54
		c0.27,0.68,0.6,1.32,1,1.9c1.2,1.75,2.75,2.63,4.65,2.63c1.64,0,3.18-0.77,4.62-2.31c1.43-1.54,2.51-3.74,3.23-6.61
		c0,2.83,0.47,5.02,1.42,6.58c0.95,1.56,2.43,2.34,4.46,2.34c2.66,0,5.03-0.72,7.11-2.15c1.19-0.82,2.34-1.79,3.44-2.87
		c0.37,0.5,0.76,0.98,1.2,1.42c2.44,2.4,5.88,3.61,10.31,3.61c3.25,0,6.29-0.8,9.14-2.4c2.11-1.19,3.86-2.46,5.27-3.81
		c0.17,0.39,0.36,0.78,0.55,1.15c1.79,3.37,4.54,5.06,8.25,5.06c2.7,0,5.11-0.72,7.24-2.15c0.73-0.49,1.44-1.05,2.14-1.64
		c0.2,0.33,0.41,0.65,0.65,0.95c1.5,1.9,3.45,2.85,5.85,2.85c3.2,0,5.46-1.81,6.77-5.44l-0.06,1.01c0,1.56,0.35,2.69,1.04,3.38
		s1.76,1.04,3.19,1.04c1.48,0,2.54-0.35,3.19-1.04c0.65-0.7,0.98-1.84,0.98-3.45c0-2.91,0.13-5.53,0.38-7.87
		c0.25-2.34,0.61-4.8,1.08-7.37c0.42-2.4,0.63-4.09,0.63-5.06C479.23,92.01,478.96,91.29,478.41,90.79z M305.7,81.35
		c1-2.67,2.39-4.81,4.15-6.42c1.77-1.61,3.77-2.64,6-3.08c2.4-0.47,4.24-0.13,5.51,1.01c1.28,1.15,2.18,3.08,2.72,5.81
		c0.63,3.23,0.66,5.89,0.08,7.98l-20.05,3.93C304.17,87.09,304.7,84.01,305.7,81.35z M416.62,103.44c0-2.57,0.54-4.76,1.61-6.58
		c1.08-1.81,2.39-2.72,3.95-2.72c0.76,0,1.36,0.24,1.8,0.73c0.44,0.49,0.66,1.13,0.66,1.93c0,1.56-0.72,2.93-2.15,4.11
		c-1.43,1.18-3.39,2.07-5.88,2.66V103.44z M444.45,82.5c0.93-5.19,2-9.53,3.23-13.03c1.22-3.5,2.32-5.25,3.29-5.25
		c1.18,0,1.77,1.6,1.77,4.81c0,4.09-0.89,8.61-2.66,13.57c-1.77,4.95-4.15,9.9-7.15,14.83C443.02,92.66,443.52,87.69,444.45,82.5z
		 M470.31,100.08c-0.76,4.22-1.62,7.15-2.59,8.79c-0.97,1.64-2.05,2.47-3.23,2.47c-0.8,0-1.44-0.33-1.93-0.98
		c-0.49-0.65-0.73-1.61-0.73-2.88c0-2.36,0.44-4.59,1.33-6.7c0.89-2.11,2.07-3.8,3.54-5.09c1.48-1.29,3.08-1.95,4.81-1.99
		L470.31,100.08z"/>
	<path class="st38" d="M329.96,115.9l-22.69,0.28C307.27,116.17,319.01,121.93,329.96,115.9z"/>
</g>
</svg>
