<svg id="Capa_1" data-name="Capa 1" xmlns="http://www.w3.org/2000/svg" viewBox="0 0 80 80"><defs><style>.cls-1{fill:#ff9b04;}</style></defs><path class="cls-1" d="M34.43,44.63a4.49,4.49,0,0,1-2.81-1c-3.85-3.09-8.44-7.73-8.44-12.23a7,7,0,0,1,6.75-7.2,6.48,6.48,0,0,1,4.5,1.84,6.44,6.44,0,0,1,4.49-1.84,7,7,0,0,1,6.75,7.2c0,4.5-4.59,9.14-8.44,12.23a4.48,4.48,0,0,1-2.8,1Zm-4.5-15.91a2.51,2.51,0,0,0-2.25,2.7c0,2,2.59,5.37,6.76,8.72,4.14-3.35,6.73-6.7,6.73-8.72a2.5,2.5,0,0,0-2.25-2.7,2.49,2.49,0,0,0-2.24,2.7,2.25,2.25,0,0,1-4.5,0A2.51,2.51,0,0,0,29.93,28.72Z"/><path class="cls-1" d="M73.06,69.08,56.24,52.25a28.23,28.23,0,1,0-4,4L69.08,73.06a2.81,2.81,0,0,0,4-4ZM34.43,57A22.55,22.55,0,1,1,57,34.43,22.54,22.54,0,0,1,34.43,57Z"/></svg>