<svg id="Capa_1" data-name="Capa 1" xmlns="http://www.w3.org/2000/svg" viewBox="0 0 80 80"><defs><style>.cls-1{fill:#ff7c27;}</style></defs><path class="cls-1" d="M34.43,45.18a4.55,4.55,0,0,1-2.81-1c-3.85-3.1-8.44-7.74-8.44-12.24a7,7,0,0,1,6.75-7.2,6.53,6.53,0,0,1,4.5,1.84,6.49,6.49,0,0,1,4.49-1.84A7,7,0,0,1,45.67,32c0,4.5-4.59,9.14-8.44,12.24a4.54,4.54,0,0,1-2.8,1Zm-4.5-15.92A2.51,2.51,0,0,0,27.68,32c0,2,2.59,5.38,6.76,8.73,4.14-3.35,6.73-6.7,6.73-8.73a2.51,2.51,0,0,0-2.25-2.7A2.5,2.5,0,0,0,36.68,32a2.25,2.25,0,0,1-4.5,0A2.51,2.51,0,0,0,29.93,29.26Z"/><path class="cls-1" d="M73.06,69.62,56.24,52.8a28.27,28.27,0,1,0-4,4L69.08,73.61a2.82,2.82,0,0,0,4-4ZM34.43,57.52A22.55,22.55,0,1,1,57,35,22.55,22.55,0,0,1,34.43,57.52Z"/></svg>