<svg id="Capa_1" data-name="Capa 1" xmlns="http://www.w3.org/2000/svg" viewBox="0 0 80 80"><defs><style>.cls-1{fill:#ff9b04;}</style></defs><path class="cls-1" d="M56.36,45.94a10.39,10.39,0,0,0-8.55,4.51L33.31,43.9a10.16,10.16,0,0,0,0-7.77L47.8,29.55A10.38,10.38,0,1,0,46,23.66a10.18,10.18,0,0,0,.18,1.75l-15.39,7a10.4,10.4,0,1,0,0,15.21l15.44,7A10.18,10.18,0,0,0,46,56.34a10.4,10.4,0,1,0,10.4-10.4Zm0-28.22a5.95,5.95,0,1,1-5.93,6h0A5.94,5.94,0,0,1,56.36,17.72ZM23.69,45.94A5.94,5.94,0,1,1,29.63,40h0A5.94,5.94,0,0,1,23.69,45.94ZM56.36,62.28a5.95,5.95,0,1,1,6-5.94h0A6,6,0,0,1,56.36,62.28Z"/></svg>