<?xml version="1.0" encoding="utf-8"?>
<!-- Generator: Adobe Illustrator 26.1.0, SVG Export Plug-In . SVG Version: 6.00 Build 0)  -->
<svg version="1.1" id="Capa_1" xmlns="http://www.w3.org/2000/svg" xmlns:xlink="http://www.w3.org/1999/xlink" x="0px" y="0px"
	 viewBox="0 0 80 80" style="enable-background:new 0 0 80 80;" xml:space="preserve">
<style type="text/css">
	.st0{clip-path:url(#SVGID_00000062901726967258465140000015899084298339142538_);}
	.st1{fill:#5F40D5;}
	.st2{clip-path:url(#SVGID_00000130614259484664665000000013718156621167106994_);}
	.st3{clip-path:url(#SVGID_00000127740012461751615860000008487960985390426293_);}
	.st4{fill:#FFFFFF;}
	.st5{opacity:0.6;fill:#FF9B04;}
	.st6{fill:none;stroke:#FF9B04;stroke-width:0;stroke-miterlimit:10;}
	.st7{fill:#ECF1FD;}
	.st8{fill:url(#SVGID_00000158715271917878044880000011017952271436422035_);}
	.st9{fill:none;stroke:#FF9B04;stroke-width:2;stroke-miterlimit:10;}
	.st10{fill:url(#SVGID_00000114776421639057048570000018276649657399240087_);}
	.st11{fill:none;stroke:#B3B3B3;stroke-width:2;stroke-miterlimit:10;}
	.st12{fill:#FF9B04;}
	.st13{fill-rule:evenodd;clip-rule:evenodd;fill:#6689C9;}
	.st14{fill-rule:evenodd;clip-rule:evenodd;fill:#4DB74B;}
	.st15{fill-rule:evenodd;clip-rule:evenodd;fill:#FFCD05;}
	.st16{fill-rule:evenodd;clip-rule:evenodd;fill:#E22F31;}
	.st17{fill-rule:evenodd;clip-rule:evenodd;fill:#FEFEFE;}
	.st18{fill:url(#SVGID_00000096762380059411039900000007766674518417738115_);}
	.st19{fill:none;stroke:#333333;stroke-width:2;stroke-miterlimit:10;}
	.st20{fill:url(#SVGID_00000120532881449025429210000010807867444540333699_);}
	.st21{fill:#E55773;}
	.st22{fill:#FF8888;}
	.st23{fill:#FF7D7D;}
	.st24{fill:#FF505C;}
	.st25{fill:#FC3C4C;}
	.st26{fill:#1F0D52;}
	.st27{fill:#32187C;}
	.st28{fill:#FFE49B;}
	.st29{fill:#FFBE7D;}
	.st30{fill:#FF4A5A;}
	.st31{fill:#7464E0;}
	.st32{fill:#B1A6FF;}
	.st33{fill:#6B5AE4;}
	.st34{fill:#D3E7EC;}
	.st35{fill:#B8D3D8;}
	.st36{fill-rule:evenodd;clip-rule:evenodd;fill:#32187C;}
	.st37{fill-rule:evenodd;clip-rule:evenodd;fill:#11B2D8;}
	.st38{fill-rule:evenodd;clip-rule:evenodd;fill:#FFFFFF;}
	.st39{fill:#FF5F00;}
	.st40{fill:#11B2D8;}
	.st41{clip-path:url(#SVGID_00000036222235595151980130000011030212938997703067_);}
	.st42{fill:#D4DEFF;}
	.st43{fill:#060673;}
	.st44{fill:#5A47E2;}
	.st45{fill:#9EB0FF;}
	.st46{fill:#FF6B79;}
	.st47{fill:url(#SVGID_00000171684500809840885940000015375482975343370384_);}
	.st48{fill:url(#SVGID_00000078033136265625128750000011870419685651856318_);}
	.st49{fill:#0F00A7;}
	.st50{fill:url(#SVGID_00000118361357354697343080000011350182344161989553_);}
	.st51{fill:url(#SVGID_00000165206689431817839140000008585082824089108649_);}
	.st52{fill:url(#SVGID_00000134232669646658194770000012231786478268486529_);}
	.st53{fill:#FF5464;}
	.st54{fill:url(#SVGID_00000120532224777940846890000008851531801862903194_);}
	.st55{fill:#FF3D53;}
	.st56{fill:#070040;}
	.st57{fill:url(#SVGID_00000119810507568321860220000003044283158975946933_);}
	.st58{fill:#FFB000;}
	.st59{fill:url(#SVGID_00000158027252521639912390000004767890442180211337_);}
	.st60{opacity:0.3;fill:#E55773;}
	.st61{fill:url(#SVGID_00000119077475746084494220000004317950439022139047_);}
	.st62{fill:#858686;}
	.st63{fill:url(#SVGID_00000171679523671912267180000012354135712463282861_);}
	.st64{clip-path:url(#SVGID_00000059278534653295100730000012895173063531194012_);}
	.st65{fill:#B9DAE1;}
	.st66{fill:#E5F0F3;}
	.st67{fill:#FF7C27;}
	.st68{clip-path:url(#SVGID_00000005229274863826679050000010156980685011022771_);}
	.st69{fill:url(#SVGID_00000142894575800767412710000016710311696573889210_);}
	.st70{fill:url(#SVGID_00000137828856212452441130000000375758943124233919_);}
	.st71{fill:#FFD400;}
	.st72{fill:url(#SVGID_00000154412776651182542530000006418977057227214998_);}
	.st73{fill:url(#SVGID_00000085972065656804078740000006328359220630486963_);}
	.st74{fill:url(#SVGID_00000013160901519819988530000015674158180809696417_);}
	.st75{clip-path:url(#SVGID_00000059287456941089147330000014605641648919160973_);}
	.st76{fill:url(#SVGID_00000057112713180857120990000002259318648625567669_);}
	.st77{fill:url(#SVGID_00000105421288086667908840000012517255409008043169_);}
	.st78{fill:url(#SVGID_00000144297199975779763210000013644278211934811546_);}
	.st79{fill:#29ABE2;}
	.st80{fill:url(#SVGID_00000054252986585854655880000016822473996976422543_);}
	.st81{fill:url(#SVGID_00000161629774584667303910000009130929159557039016_);}
	.st82{fill:url(#SVGID_00000169521499402260855570000009998708466660715926_);}
	.st83{fill:url(#SVGID_00000087373691407836035740000014742149296847112836_);}
	.st84{fill:url(#SVGID_00000021086139566748909140000016169809108739139752_);}
	.st85{fill:url(#SVGID_00000111162657242156271740000013051110385729861290_);}
	.st86{fill:url(#SVGID_00000127002090712497672330000009689024154017530778_);}
	.st87{fill:url(#SVGID_00000138552438840789386060000013453897065955792808_);}
	.st88{fill:url(#SVGID_00000067195558301340103520000010135338626036273802_);}
	.st89{fill:none;stroke:#FF9B04;stroke-miterlimit:10;}
	.st90{fill:url(#SVGID_00000140729263626002597010000017188191023909510038_);}
	.st91{fill:none;stroke:#FF9B04;stroke-width:3;stroke-miterlimit:10;}
	.st92{fill:#F22927;}
	.st93{fill:url(#SVGID_00000178917943203878888290000006347028304968290449_);}
	.st94{fill:url(#SVGID_00000076597130305550728210000005394808551371671975_);}
	.st95{fill:url(#SVGID_00000103980561923042235630000006390554152421888932_);}
	.st96{fill:url(#SVGID_00000157986473164432793540000014033694534835926925_);}
	.st97{fill:url(#SVGID_00000084519495599331692980000007591591305201934760_);}
	.st98{fill:#E6E6E6;}
	.st99{fill:url(#SVGID_00000082345877249578304530000010752615980335359134_);}
	.st100{opacity:0.5;}
	.st101{fill:#E0E3E6;}
	.st102{fill:url(#SVGID_00000124141170456504154010000000523763503748999568_);}
	.st103{fill:url(#SVGID_00000149361495166864065960000018141910509512677038_);}
	.st104{fill:#B3B3B3;}
	.st105{fill:url(#SVGID_00000182515937020274797800000018189913700287244979_);}
	.st106{fill:url(#SVGID_00000125575145000957114690000003063919365113046202_);}
	.st107{fill:#0697D6;}
	.st108{fill:#59C8E2;}
	.st109{fill:url(#SVGID_00000056409957121253293520000016178632630541598631_);}
	.st110{fill:url(#SVGID_00000162314465541104608810000012999195059002617787_);}
	.st111{fill:url(#SVGID_00000088828674149517925410000013921328584456783244_);}
	.st112{fill:url(#SVGID_00000000184625412860371110000017486792470803769791_);}
	.st113{fill:url(#SVGID_00000016762294341226444890000010304573620145422762_);}
	.st114{fill:url(#SVGID_00000130609693169114871940000014684570414508990089_);}
	.st115{fill:url(#SVGID_00000045611308280337921540000002111601229499585930_);}
	.st116{fill:url(#SVGID_00000097492952120098135120000017903144950928081594_);}
	.st117{fill:url(#SVGID_00000170261869693251110940000014449948525499431097_);}
	.st118{fill:url(#SVGID_00000165227190292262538670000016330716598679531431_);}
	.st119{fill:url(#SVGID_00000027568454265308105240000003094046119719005622_);}
	.st120{fill:url(#SVGID_00000003793454220652374470000017886160837706652303_);}
	.st121{fill:url(#SVGID_00000156555766284102856870000012097724125230588823_);}
</style>
<path class="st12" d="M42.7,9.9c0-1.5,1.2-2.7,2.7-2.7c15.1,0,27.4,12.3,27.4,27.4c0,1.5-1.2,2.7-2.7,2.7s-2.7-1.2-2.7-2.7
	c0-12.1-9.8-21.9-21.9-21.9C43.9,12.6,42.7,11.4,42.7,9.9z M45.4,23.6c6.1,0,11,4.9,11,11c0,1.5,1.2,2.7,2.7,2.7s2.7-1.2,2.7-2.7
	c0-9.1-7.4-16.4-16.5-16.5c-1.5,0-2.7,1.2-2.7,2.7C42.7,22.4,43.9,23.6,45.4,23.6z M70.4,53.1c3.3,3.3,3.3,8.7,0,12l-2.5,2.9
	C45.4,89.4-9.2,34.8,11.9,12.3l3.2-2.7c3.3-3.2,8.6-3.2,11.9,0.1c0.1,0.1,5.2,6.7,5.2,6.7c3.1,3.3,3.1,8.5,0,11.7l-3.2,4
	c3.5,8.6,10.4,15.5,19,19l4-3.2c3.3-3.1,8.4-3.1,11.7,0C63.7,47.9,70.3,53,70.4,53.1z M66.6,57c0,0-6.6-5-6.6-5.1
	c-1.2-1.2-3.1-1.2-4.2,0c-0.1,0.1-5.6,4.5-5.6,4.5c-0.8,0.6-1.8,0.8-2.7,0.4c-11.2-4.2-20-13-24.2-24.2c-0.4-0.9-0.2-2,0.4-2.7
	c0,0,4.4-5.5,4.5-5.6c1.2-1.2,1.2-3.1,0-4.2C28,20,23,13.4,23,13.4c-1.2-1.1-3-1-4.1,0.1l-3.2,2.7C0.2,34.9,47.6,79.6,63.9,64.2
	l2.5-2.9C67.6,60.2,67.7,58.3,66.6,57L66.6,57z"/>
</svg>
