<?xml version="1.0" encoding="utf-8"?>
<!-- Generator: Adobe Illustrator 26.1.0, SVG Export Plug-In . SVG Version: 6.00 Build 0)  -->
<svg version="1.1" id="Capa_1" xmlns="http://www.w3.org/2000/svg" xmlns:xlink="http://www.w3.org/1999/xlink" x="0px" y="0px"
	 viewBox="0 0 80 80" style="enable-background:new 0 0 80 80;" xml:space="preserve">
<style type="text/css">
	.st0{clip-path:url(#SVGID_00000009562137770580350160000002361255423023440279_);}
	.st1{fill:#5F40D5;}
	.st2{clip-path:url(#SVGID_00000149348537570595129060000005949876635747061155_);}
	.st3{clip-path:url(#SVGID_00000175312825725882621730000008203580224052281995_);}
	.st4{fill:#FFFFFF;}
	.st5{opacity:0.6;fill:#FF9B04;}
	.st6{fill:none;stroke:#FF9B04;stroke-width:0;stroke-miterlimit:10;}
	.st7{fill:#ECF1FD;}
	.st8{fill:url(#SVGID_00000028290219975584288110000001338171787037620868_);}
	.st9{fill:none;stroke:#FF9B04;stroke-width:2;stroke-miterlimit:10;}
	.st10{fill:url(#SVGID_00000063632470112192234840000006253644852032287111_);}
	.st11{fill:none;stroke:#B3B3B3;stroke-width:2;stroke-miterlimit:10;}
	.st12{fill:#FF9B04;}
	.st13{fill-rule:evenodd;clip-rule:evenodd;fill:#6689C9;}
	.st14{fill-rule:evenodd;clip-rule:evenodd;fill:#4DB74B;}
	.st15{fill-rule:evenodd;clip-rule:evenodd;fill:#FFCD05;}
	.st16{fill-rule:evenodd;clip-rule:evenodd;fill:#E22F31;}
	.st17{fill-rule:evenodd;clip-rule:evenodd;fill:#FEFEFE;}
	.st18{fill:url(#SVGID_00000072966279919683259900000003802385193904892604_);}
	.st19{fill:none;stroke:#333333;stroke-width:2;stroke-miterlimit:10;}
	.st20{fill:url(#SVGID_00000112601056841821274610000003152392512861771427_);}
	.st21{fill:#E55773;}
	.st22{fill:#FF8888;}
	.st23{fill:#FF7D7D;}
	.st24{fill:#FF505C;}
	.st25{fill:#FC3C4C;}
	.st26{fill:#1F0D52;}
	.st27{fill:#32187C;}
	.st28{fill:#FFE49B;}
	.st29{fill:#FFBE7D;}
	.st30{fill:#FF4A5A;}
	.st31{fill:#7464E0;}
	.st32{fill:#B1A6FF;}
	.st33{fill:#6B5AE4;}
	.st34{fill:#D3E7EC;}
	.st35{fill:#B8D3D8;}
	.st36{fill-rule:evenodd;clip-rule:evenodd;fill:#32187C;}
	.st37{fill-rule:evenodd;clip-rule:evenodd;fill:#11B2D8;}
	.st38{fill-rule:evenodd;clip-rule:evenodd;fill:#FFFFFF;}
	.st39{fill:#FF5F00;}
	.st40{fill:#11B2D8;}
	.st41{clip-path:url(#SVGID_00000060019131408280017520000016125730231809432462_);}
	.st42{fill:#D4DEFF;}
	.st43{fill:#060673;}
	.st44{fill:#5A47E2;}
	.st45{fill:#9EB0FF;}
	.st46{fill:#FF6B79;}
	.st47{fill:url(#SVGID_00000077287014949104170230000003719925909124791471_);}
	.st48{fill:url(#SVGID_00000107586941304194562870000000341381812141010573_);}
	.st49{fill:#0F00A7;}
	.st50{fill:url(#SVGID_00000112603982740402884690000003759046788793621122_);}
	.st51{fill:url(#SVGID_00000142141213878676239600000012362299882917666963_);}
	.st52{fill:url(#SVGID_00000104703422593709301620000011753381048893875871_);}
	.st53{fill:#FF5464;}
	.st54{fill:url(#SVGID_00000098207424927432936740000000130738185072253590_);}
	.st55{fill:#FF3D53;}
	.st56{fill:#070040;}
	.st57{fill:url(#SVGID_00000054245929323554502100000009787695929582846850_);}
	.st58{fill:#FFB000;}
	.st59{fill:url(#SVGID_00000148647766684398142390000014328681564723541651_);}
	.st60{opacity:0.3;fill:#E55773;}
	.st61{fill:url(#SVGID_00000038379512821315043260000006474547227796939436_);}
	.st62{fill:#858686;}
	.st63{fill:url(#SVGID_00000026844630622182492620000016512653491895527098_);}
	.st64{clip-path:url(#SVGID_00000060722516475270983030000009573614436950450082_);}
	.st65{fill:#B9DAE1;}
	.st66{fill:#E5F0F3;}
	.st67{fill:#FF7C27;}
	.st68{clip-path:url(#SVGID_00000127727805916438337550000006467240284480010142_);}
	.st69{fill:url(#SVGID_00000025421467879615541620000007339046080337851827_);}
	.st70{fill:url(#SVGID_00000132785943536356766980000014816612018233973418_);}
	.st71{fill:#FFD400;}
	.st72{fill:url(#SVGID_00000170966388822921116610000010069074486246635430_);}
	.st73{fill:url(#SVGID_00000175300150077571188610000013796221172905249701_);}
	.st74{fill:url(#SVGID_00000119104800855241843510000002233500042938021005_);}
	.st75{clip-path:url(#SVGID_00000032648309036046472440000012613323335240778388_);}
	.st76{fill:url(#SVGID_00000118363041713382042490000016015317161651819180_);}
	.st77{fill:url(#SVGID_00000011743725611350419910000007360872818947004845_);}
	.st78{fill:url(#SVGID_00000088100581147228072780000008457125856133433513_);}
	.st79{fill:#29ABE2;}
	.st80{fill:url(#SVGID_00000183964395788225491020000004356181410051208850_);}
	.st81{fill:url(#SVGID_00000077303373400983330300000006579643331480468353_);}
	.st82{fill:url(#SVGID_00000150084046327772110550000012006967516469479840_);}
	.st83{fill:url(#SVGID_00000006686698369326797460000009447790260854088589_);}
	.st84{fill:url(#SVGID_00000093869644861690147980000008792428862425534394_);}
	.st85{fill:url(#SVGID_00000034087283485235765990000007209022622586534846_);}
	.st86{fill:url(#SVGID_00000168796400189810053060000011049118442263228299_);}
	.st87{fill:url(#SVGID_00000139258947940862700660000002971115063450138266_);}
	.st88{fill:url(#SVGID_00000093896499327170617830000014876866033494618007_);}
	.st89{fill:none;stroke:#FF9B04;stroke-miterlimit:10;}
	.st90{fill:url(#SVGID_00000111168445258332674650000017266471904016780433_);}
	.st91{fill:none;stroke:#FF9B04;stroke-width:3;stroke-miterlimit:10;}
	.st92{fill:#F22927;}
	.st93{fill:url(#SVGID_00000150816739375912886090000008327999065627062942_);}
	.st94{fill:url(#SVGID_00000141449352420592368880000002411189635308140714_);}
	.st95{fill:url(#SVGID_00000109020450127702998180000007965915213265252530_);}
	.st96{fill:url(#SVGID_00000014606363099633826740000001637741451998879918_);}
	.st97{fill:url(#SVGID_00000111190666623622038350000014758899406488666288_);}
	.st98{fill:#E6E6E6;}
	.st99{fill:url(#SVGID_00000064351561796633348070000010847464589732628632_);}
	.st100{opacity:0.5;}
	.st101{fill:#E0E3E6;}
	.st102{fill:url(#SVGID_00000029021364661109446080000010782336572607938461_);}
	.st103{fill:url(#SVGID_00000111894847500716202680000009573231249002145450_);}
	.st104{fill:#B3B3B3;}
	.st105{fill:url(#SVGID_00000139977349451448959180000015591693083842227853_);}
	.st106{fill:url(#SVGID_00000054945773493717209780000015441183972306577067_);}
	.st107{fill:#0697D6;}
	.st108{fill:#59C8E2;}
	.st109{fill:url(#SVGID_00000088123507675211362040000016071008459095951007_);}
	.st110{fill:url(#SVGID_00000091711558621088546090000013810308823543043491_);}
	.st111{fill:url(#SVGID_00000097471517351209402010000013946865542719635383_);}
	.st112{fill:url(#SVGID_00000099634071462544577900000018195082878044126362_);}
	.st113{fill:url(#SVGID_00000033361908976441807220000015352454692748237235_);}
	.st114{fill:url(#SVGID_00000089539952673832437840000005315681136888452276_);}
	.st115{fill:url(#SVGID_00000137111632879944788550000015828518731252400808_);}
	.st116{fill:url(#SVGID_00000086690590837123927800000004051913758546355627_);}
	.st117{fill:url(#SVGID_00000147211371288992637340000013006589502718235055_);}
	.st118{fill:url(#SVGID_00000164515418086288290710000015437248807466569115_);}
	.st119{fill:url(#SVGID_00000147915953023404551980000005752526683915909515_);}
	.st120{fill:url(#SVGID_00000105397521904473114080000005958566357715043475_);}
	.st121{fill:url(#SVGID_00000057855341579657290990000002791301286189998229_);}
</style>
<path class="st67" d="M42.7,9.9c0-1.5,1.2-2.7,2.7-2.7c15.1,0,27.4,12.3,27.4,27.4c0,1.5-1.2,2.7-2.7,2.7s-2.7-1.2-2.7-2.7
	c0-12.1-9.8-21.9-21.9-21.9C43.9,12.6,42.7,11.4,42.7,9.9z M45.4,23.6c6.1,0,11,4.9,11,11c0,1.5,1.2,2.7,2.7,2.7s2.7-1.2,2.7-2.7
	c0-9.1-7.4-16.4-16.5-16.5c-1.5,0-2.7,1.2-2.7,2.7C42.7,22.4,43.9,23.6,45.4,23.6z M70.4,53.1c3.3,3.3,3.3,8.7,0,12l-2.5,2.9
	C45.4,89.4-9.2,34.8,11.9,12.3l3.2-2.7c3.3-3.2,8.6-3.2,11.9,0.1c0.1,0.1,5.2,6.7,5.2,6.7c3.1,3.3,3.1,8.5,0,11.7l-3.2,4
	c3.5,8.6,10.4,15.5,19,19l4-3.2c3.3-3.1,8.4-3.1,11.7,0C63.7,47.9,70.3,53,70.4,53.1z M66.6,57c0,0-6.6-5-6.6-5.1
	c-1.2-1.2-3.1-1.2-4.2,0c-0.1,0.1-5.6,4.5-5.6,4.5c-0.8,0.6-1.8,0.8-2.7,0.4c-11.2-4.2-20-13-24.2-24.2c-0.4-0.9-0.2-2,0.4-2.7
	c0,0,4.4-5.5,4.5-5.6c1.2-1.2,1.2-3.1,0-4.2C28,20,23,13.4,23,13.4c-1.2-1.1-3-1-4.1,0.1l-3.2,2.7C0.2,34.9,47.6,79.6,63.9,64.2
	l2.5-2.9C67.6,60.2,67.7,58.3,66.6,57L66.6,57z"/>
</svg>
