<?xml version="1.0" encoding="utf-8"?>
<!-- Generator: Adobe Illustrator 26.1.0, SVG Export Plug-In . SVG Version: 6.00 Build 0)  -->
<svg version="1.1" id="Capa_1" xmlns="http://www.w3.org/2000/svg" xmlns:xlink="http://www.w3.org/1999/xlink" x="0px" y="0px"
	 viewBox="0 0 50 50" style="enable-background:new 0 0 50 50;" xml:space="preserve">
<style type="text/css">
	.st0{fill:#6737DD;}
	.st1{clip-path:url(#SVGID_00000060747289636050452020000011605320310309214615_);}
	.st2{fill:#D1DDFF;}
	.st3{fill:#0C0078;}
	.st4{fill:#613EEA;}
	.st5{fill:#9AAEFF;}
	.st6{fill:#FF5E75;}
	.st7{fill:url(#SVGID_00000138553672801705828030000006367978585213448328_);}
	.st8{fill:url(#SVGID_00000029749455689726810930000008992126824430694788_);}
	.st9{fill:#1A00AD;}
	.st10{fill:#FF5000;}
	.st11{fill:url(#SVGID_00000026159382025354819500000009674373435362440885_);}
	.st12{fill:url(#SVGID_00000120531815048508255080000002036322765954706073_);}
	.st13{fill:url(#SVGID_00000013913329321388740670000010471549529253712034_);}
	.st14{fill:#FF3F5F;}
	.st15{fill:url(#SVGID_00000085958474550587119560000010475124061808946098_);}
	.st16{fill:#FF134C;}
	.st17{fill:#0B0043;}
	.st18{fill:url(#SVGID_00000152266132297000648430000006202348127195254455_);}
	.st19{fill:#FFAC00;}
	.st20{clip-path:url(#SVGID_00000125573016061504881440000003255139016268174211_);}
	.st21{fill:url(#SVGID_00000044893818402388540490000004152500496325326509_);}
	.st22{fill:#0D0078;}
	.st23{fill:url(#SVGID_00000147917142926420663350000000751473693274966657_);}
	.st24{fill:#FFD300;}
	.st25{fill:url(#SVGID_00000109731773270761518940000006855739580287135881_);}
	.st26{fill:url(#SVGID_00000008849518231179465420000013978079347962337412_);}
	.st27{fill:url(#SVGID_00000181798164973870303670000000321836801739827612_);}
	.st28{fill:#FFE38F;}
	.st29{fill:#FF9600;}
	.st30{fill:#00B3DB;}
	.st31{clip-path:url(#SVGID_00000083776479466706994990000014068290756360545186_);}
	.st32{fill:url(#SVGID_00000145047834266436053980000015610001588114668944_);}
	.st33{fill:url(#SVGID_00000116938909356847662730000016936977235892381363_);}
	.st34{fill:url(#SVGID_00000091012630603117407060000016414932423981613443_);}
	.st35{fill:#380F81;}
	.st36{fill:#FFFFFF;}
	.st37{fill:#00ACE7;}
	.st38{fill:#F64871;}
	.st39{clip-path:url(#SVGID_00000173141227938747924730000007905094303657968523_);}
	.st40{fill:#FF3A55;}
	.st41{fill:#230756;}
	.st42{fill:#CDE7EC;}
	.st43{fill:#B0DAE1;}
	.st44{fill:#FF1343;}
	.st45{fill:#B0D3D8;}
	.st46{fill:#E2EFF3;}
	.st47{fill:#B4A2FF;}
	.st48{fill:#FF7300;}
	.st49{fill:#858686;}
	.st50{opacity:0.6;fill:#FF9600;}
	.st51{fill:url(#SVGID_00000130631307439411243240000014069181188501194164_);}
	.st52{fill:#4195D0;}
	.st53{fill:#76C5DE;}
</style>
<g>
	<path class="st29" d="M43.5,25c0,10.22-8.28,18.5-18.5,18.5S6.5,35.22,6.5,25c0-0.85,0.69-1.54,1.54-1.54S9.58,24.15,9.58,25
		c0,8.51,6.9,15.42,15.42,15.42S40.42,33.51,40.42,25S33.51,9.58,25,9.58c-0.85,0-1.54-0.69-1.54-1.54S24.15,6.5,25,6.5
		C35.21,6.51,43.49,14.79,43.5,25z M22.34,23.46h-3.51c-0.85,0-1.54,0.69-1.54,1.54s0.69,1.54,1.54,1.54h3.51
		c0.85,1.47,2.73,1.98,4.2,1.13c1.47-0.85,1.98-2.73,1.13-4.2c-0.27-0.47-0.66-0.86-1.13-1.13v-5.05c0-0.85-0.69-1.54-1.54-1.54
		s-1.54,0.69-1.54,1.54v5.05C23,22.61,22.61,23,22.34,23.46z M9.32,20.04c0.85,0,1.54-0.69,1.54-1.54s-0.69-1.54-1.54-1.54
		c-0.85,0-1.54,0.69-1.54,1.54S8.47,20.04,9.32,20.04z M13.01,14.53c0.85,0,1.54-0.69,1.54-1.54s-0.69-1.54-1.54-1.54
		c-0.85,0-1.54,0.69-1.54,1.54S12.16,14.53,13.01,14.53z M18.49,10.88c0.85,0,1.54-0.69,1.54-1.54c0-0.85-0.69-1.54-1.54-1.54
		s-1.54,0.69-1.54,1.54C16.95,10.19,17.64,10.88,18.49,10.88z"/>
</g>
</svg>
