<?xml version="1.0" encoding="utf-8"?>
<!-- Generator: Adobe Illustrator 26.1.0, SVG Export Plug-In . SVG Version: 6.00 Build 0)  -->
<svg version="1.1" id="Capa_1" xmlns="http://www.w3.org/2000/svg" xmlns:xlink="http://www.w3.org/1999/xlink" x="0px" y="0px"
	 viewBox="0 0 50 50" style="enable-background:new 0 0 50 50;" xml:space="preserve">
<style type="text/css">
	.st0{fill:#6737DD;}
	.st1{clip-path:url(#SVGID_00000017489530016582719300000013685510211579170982_);}
	.st2{fill:#D1DDFF;}
	.st3{fill:#0C0078;}
	.st4{fill:#613EEA;}
	.st5{fill:#9AAEFF;}
	.st6{fill:#FF5E75;}
	.st7{fill:url(#SVGID_00000056419644566670821480000015063322864566805662_);}
	.st8{fill:url(#SVGID_00000085216201727009555250000016454887719536571818_);}
	.st9{fill:#1A00AD;}
	.st10{fill:#FF5000;}
	.st11{fill:url(#SVGID_00000162318201396438968740000013688308911084652943_);}
	.st12{fill:url(#SVGID_00000064332299375382878220000003167358588602415010_);}
	.st13{fill:url(#SVGID_00000134960495680720830420000009676823370582512542_);}
	.st14{fill:#FF3F5F;}
	.st15{fill:url(#SVGID_00000085244833551656975840000013478913783361269636_);}
	.st16{fill:#FF134C;}
	.st17{fill:#0B0043;}
	.st18{fill:url(#SVGID_00000132784660055419550580000007504021413710729623_);}
	.st19{fill:#FFAC00;}
	.st20{clip-path:url(#SVGID_00000015342884226197062460000004149829914049752210_);}
	.st21{fill:url(#SVGID_00000110459865118526576520000002878867797189679285_);}
	.st22{fill:#0D0078;}
	.st23{fill:url(#SVGID_00000058585069730227875770000009929096037230549183_);}
	.st24{fill:#FFD300;}
	.st25{fill:url(#SVGID_00000070818897473567684110000009273083721097437355_);}
	.st26{fill:url(#SVGID_00000055681072716232321790000018430951766727958955_);}
	.st27{fill:url(#SVGID_00000008830332310155490620000016987970544090425730_);}
	.st28{fill:#FFE38F;}
	.st29{fill:#FF9600;}
	.st30{fill:#00B3DB;}
	.st31{clip-path:url(#SVGID_00000044149733695409543310000010663109258302618772_);}
	.st32{fill:url(#SVGID_00000060711793112307798290000010449877222958652095_);}
	.st33{fill:url(#SVGID_00000003786147092196222120000016121912008757588148_);}
	.st34{fill:url(#SVGID_00000170986716339858841680000017386289394558199964_);}
	.st35{fill:#380F81;}
	.st36{fill:#FFFFFF;}
	.st37{fill:#00ACE7;}
	.st38{fill:#F64871;}
	.st39{clip-path:url(#SVGID_00000161606816021680785340000001949764343471571371_);}
	.st40{fill:#FF3A55;}
	.st41{fill:#230756;}
	.st42{fill:#CDE7EC;}
	.st43{fill:#B0DAE1;}
	.st44{fill:#FF1343;}
	.st45{fill:#B0D3D8;}
	.st46{fill:#E2EFF3;}
	.st47{fill:#B4A2FF;}
	.st48{fill:#FF7300;}
	.st49{fill:#858686;}
	.st50{opacity:0.6;fill:#FF9600;}
	.st51{fill:url(#SVGID_00000182514414120199735120000015197810152753680317_);}
	.st52{fill:#4195D0;}
	.st53{fill:#76C5DE;}
</style>
<g>
	<g>
		<path class="st29" d="M35.82,43.55H14.18c-4.27-0.01-7.72-3.46-7.73-7.73V14.18c0.01-4.27,3.46-7.72,7.73-7.73h21.64
			c4.27,0.01,7.72,3.46,7.73,7.73v21.64C43.54,40.09,40.09,43.54,35.82,43.55z M14.18,9.54c-2.56,0-4.64,2.08-4.64,4.64v21.64
			c0,2.56,2.08,4.64,4.64,4.64h21.64c2.56,0,4.64-2.08,4.64-4.64V14.18c0-2.56-2.08-4.64-4.64-4.64H14.18z M20.89,32.74
			c-0.64,0-1.28-0.17-1.83-0.5c-1.12-0.64-1.81-1.83-1.8-3.12v-8.23c0-2,1.61-3.61,3.61-3.62c0.63,0,1.25,0.16,1.8,0.48l8.16,4.07
			c1.75,0.95,2.41,3.14,1.46,4.89c-0.32,0.59-0.8,1.09-1.39,1.42l-8.31,4.15C22.07,32.59,21.49,32.74,20.89,32.74L20.89,32.74z
			 M20.85,20.37c-0.09,0-0.17,0.02-0.24,0.06c-0.16,0.09-0.26,0.26-0.26,0.45v8.23c0,0.29,0.24,0.52,0.52,0.52
			c0.09,0,0.17-0.02,0.25-0.06l8.31-4.16c0.13-0.1,0.19-0.25,0.19-0.41c0-0.19-0.1-0.36-0.26-0.45l-8.15-4.07
			C21.1,20.41,20.98,20.37,20.85,20.37L20.85,20.37z"/>
	</g>
</g>
</svg>
