<?xml version="1.0" encoding="utf-8"?>
<!-- Generator: Adobe Illustrator 26.1.0, SVG Export Plug-In . SVG Version: 6.00 Build 0)  -->
<svg version="1.1" id="Capa_1" xmlns="http://www.w3.org/2000/svg" xmlns:xlink="http://www.w3.org/1999/xlink" x="0px" y="0px"
	 viewBox="0 0 80 80" style="enable-background:new 0 0 80 80;" xml:space="preserve">
<style type="text/css">
	.st0{fill:#6737DD;}
	.st1{clip-path:url(#SVGID_00000005987413184250367270000005340905105479609511_);}
	.st2{fill:#D1DDFF;}
	.st3{fill:#0C0078;}
	.st4{fill:#613EEA;}
	.st5{fill:#9AAEFF;}
	.st6{fill:#FF5E75;}
	.st7{fill:url(#SVGID_00000066514824128359956950000015418077822819915437_);}
	.st8{fill:url(#SVGID_00000150781160685659346780000009618489192201144993_);}
	.st9{fill:#1A00AD;}
	.st10{fill:#FF5000;}
	.st11{fill:url(#SVGID_00000003104832623674437900000015041832523221268617_);}
	.st12{fill:url(#SVGID_00000046337546415258727430000015540278934097783185_);}
	.st13{fill:url(#SVGID_00000115510876379438855220000000428887674474395265_);}
	.st14{fill:#FF3F5F;}
	.st15{fill:url(#SVGID_00000149359333451525424280000017925499803351984315_);}
	.st16{fill:#FF134C;}
	.st17{fill:#0B0043;}
	.st18{fill:url(#SVGID_00000011714040174632668750000017947873003944660630_);}
	.st19{fill:#FFAC00;}
	.st20{clip-path:url(#SVGID_00000093882716709282625220000007640495513354169752_);}
	.st21{fill:url(#SVGID_00000101085700730681460730000014080360608621928328_);}
	.st22{fill:#0D0078;}
	.st23{fill:url(#SVGID_00000008125800392967319070000007610951635459081877_);}
	.st24{fill:#FFD300;}
	.st25{fill:url(#SVGID_00000140707348786110804880000014493440374476115343_);}
	.st26{fill:url(#SVGID_00000039827725087040021730000012679064073779868601_);}
	.st27{fill:url(#SVGID_00000170961360787353677530000004316050680625460381_);}
	.st28{fill:#FFE38F;}
	.st29{fill:#FF9600;}
	.st30{fill:#00B3DB;}
	.st31{clip-path:url(#SVGID_00000150797001194325788350000014351959955677278598_);}
	.st32{fill:url(#SVGID_00000132087840727154986320000007099939306008086199_);}
	.st33{fill:url(#SVGID_00000114796535076839439170000013375864644441910710_);}
	.st34{fill:url(#SVGID_00000060026125607532828770000013103358681182665610_);}
	.st35{fill:#380F81;}
	.st36{fill:#FFFFFF;}
	.st37{fill:#00ACE7;}
	.st38{fill:#F64871;}
	.st39{clip-path:url(#SVGID_00000114765806813400665330000001183694283407495864_);}
	.st40{fill:#FF3A55;}
	.st41{fill:#230756;}
	.st42{fill:#CDE7EC;}
	.st43{fill:#B0DAE1;}
	.st44{fill:#FF1343;}
	.st45{fill:#B0D3D8;}
	.st46{fill:#E2EFF3;}
	.st47{fill:#B4A2FF;}
	.st48{fill:#FF7300;}
	.st49{fill:#858686;}
	.st50{opacity:0.6;fill:#FF9600;}
	.st51{fill:url(#SVGID_00000170967788540594067490000017905486746196146607_);}
	.st52{fill:#4195D0;}
	.st53{fill:#76C5DE;}
</style>
<g>
	<g>
		<defs>
			<path id="SVGID_1_" d="M-972.42,645.93h886.85c26.72,0,48.38-21.66,48.38-48.38V288.45c0-26.72-21.66-48.38-48.38-48.38h-886.85
				c-26.72,0-48.38,21.66-48.38,48.38v309.09C-1020.81,624.27-999.14,645.93-972.42,645.93z"/>
		</defs>
		<clipPath id="SVGID_00000118368052531337229060000008732556493678732206_">
			<use xlink:href="#SVGID_1_"  style="overflow:visible;"/>
		</clipPath>
		<g style="clip-path:url(#SVGID_00000118368052531337229060000008732556493678732206_);">
		</g>
	</g>
</g>
<g>
	<path class="st36" d="M69.8,54.74v5.97c0,4.95-4.01,8.95-8.95,8.95H19.06c-4.95,0-8.95-4.01-8.95-8.95v-5.97
		c0-1.65-1.34-2.98-2.98-2.98s-2.98,1.34-2.98,2.98v5.97c0.01,8.24,6.69,14.91,14.92,14.92h41.79c8.24-0.01,14.91-6.69,14.92-14.92
		v-5.97c0-1.65-1.34-2.98-2.98-2.98C71.13,51.76,69.8,53.09,69.8,54.74z"/>
	<path class="st36" d="M36.96,6.98L36.96,6.98l0.1,47.09c-0.49-0.26-0.93-0.59-1.33-0.97L24.15,41.53
		c-1.15-1.19-3.03-1.22-4.22-0.07c-1.19,1.15-1.22,3.03-0.07,4.22c0.02,0.02,0.05,0.05,0.07,0.07l11.58,11.58
		c4.66,4.66,12.22,4.66,16.88,0l11.58-11.58c1.19-1.15,1.22-3.03,0.07-4.22c-1.15-1.19-3.03-1.22-4.22-0.07
		c-0.02,0.02-0.05,0.05-0.07,0.07L44.17,53.11c-0.34,0.33-0.73,0.63-1.14,0.87l-0.1-46.99C42.93,5.34,41.6,4,39.95,4
		C38.3,4,36.96,5.34,36.96,6.98z"/>
</g>
</svg>
