<?xml version="1.0" encoding="utf-8"?>
<!-- Generator: Adobe Illustrator 26.1.0, SVG Export Plug-In . SVG Version: 6.00 Build 0)  -->
<svg version="1.1" id="Capa_1" xmlns="http://www.w3.org/2000/svg" xmlns:xlink="http://www.w3.org/1999/xlink" x="0px" y="0px"
	 viewBox="0 0 50 50" style="enable-background:new 0 0 50 50;" xml:space="preserve">
<style type="text/css">
	.st0{fill:#6737DD;}
	.st1{clip-path:url(#SVGID_00000154423319836120407400000009012230527431016889_);}
	.st2{fill:#D1DDFF;}
	.st3{fill:#0C0078;}
	.st4{fill:#613EEA;}
	.st5{fill:#9AAEFF;}
	.st6{fill:#FF5E75;}
	.st7{fill:url(#SVGID_00000080929529084543578920000015918596656327531652_);}
	.st8{fill:url(#SVGID_00000056427718047178945670000005745911604177927866_);}
	.st9{fill:#1A00AD;}
	.st10{fill:#FF5000;}
	.st11{fill:url(#SVGID_00000057868816670552034540000015636116747582086315_);}
	.st12{fill:url(#SVGID_00000152229561350573338160000003814235150121475518_);}
	.st13{fill:url(#SVGID_00000071541102382178119510000013438833184150594437_);}
	.st14{fill:#FF3F5F;}
	.st15{fill:url(#SVGID_00000097473562010588916380000000344807346679827111_);}
	.st16{fill:#FF134C;}
	.st17{fill:#0B0043;}
	.st18{fill:url(#SVGID_00000048470403096471836000000009576802318513326014_);}
	.st19{fill:#FFAC00;}
	.st20{clip-path:url(#SVGID_00000014614050929752662090000009371409623963359895_);}
	.st21{fill:url(#SVGID_00000056404192347098836380000007689616828134920354_);}
	.st22{fill:#0D0078;}
	.st23{fill:url(#SVGID_00000090975811789606648740000014516579465644619185_);}
	.st24{fill:#FFD300;}
	.st25{fill:url(#SVGID_00000043430865576836291350000012388488098724135081_);}
	.st26{fill:url(#SVGID_00000115479810859040874050000003604533312353091975_);}
	.st27{fill:url(#SVGID_00000143603900117048032710000006494453973160698297_);}
	.st28{fill:#FFE38F;}
	.st29{fill:#FF9600;}
	.st30{fill:#00B3DB;}
	.st31{clip-path:url(#SVGID_00000080888740644377039800000007155863743927587252_);}
	.st32{fill:url(#SVGID_00000174589684092056990290000015644536703113062045_);}
	.st33{fill:url(#SVGID_00000011730308515377565550000014641635170930295983_);}
	.st34{fill:url(#SVGID_00000130635243460808174800000016976279351007302284_);}
	.st35{fill:#380F81;}
	.st36{fill:#FFFFFF;}
	.st37{fill:#00ACE7;}
	.st38{fill:#F64871;}
	.st39{clip-path:url(#SVGID_00000177482381741549905690000011106991384071246773_);}
	.st40{fill:#FF3A55;}
	.st41{fill:#230756;}
	.st42{fill:#CDE7EC;}
	.st43{fill:#B0DAE1;}
	.st44{fill:#FF1343;}
	.st45{fill:#B0D3D8;}
	.st46{fill:#E2EFF3;}
	.st47{fill:#B4A2FF;}
	.st48{fill:#FF7300;}
	.st49{fill:#858686;}
	.st50{opacity:0.6;fill:#FF9600;}
	.st51{fill:url(#SVGID_00000085238326829786380100000004582755369643914649_);}
	.st52{fill:#4195D0;}
	.st53{fill:#76C5DE;}
</style>
<g>
	<path class="st29" d="M34.62,5.75H18.58c-3.19,0-6.07,1.89-7.34,4.81H8.96c-0.89,0-1.6,0.72-1.6,1.6c0,0.89,0.72,1.6,1.6,1.6h1.6
		v3.21h-1.6c-0.89,0-1.6,0.72-1.6,1.6s0.72,1.6,1.6,1.6h1.6v3.21h-1.6c-0.89,0-1.6,0.72-1.6,1.6s0.72,1.6,1.6,1.6h1.6v3.21h-1.6
		c-0.89,0-1.6,0.72-1.6,1.6s0.72,1.6,1.6,1.6h1.6v3.21h-1.6c-0.89,0-1.6,0.72-1.6,1.6s0.72,1.6,1.6,1.6h2.28
		c1.27,2.92,4.16,4.81,7.34,4.81h16.04c4.43-0.01,8.02-3.59,8.02-8.02V13.77C42.64,9.34,39.05,5.76,34.62,5.75z M39.44,36.23
		c0,2.66-2.15,4.81-4.81,4.81H18.58c-2.66,0-4.81-2.15-4.81-4.81V13.77c0-2.66,2.15-4.81,4.81-4.81h16.04
		c2.66,0,4.81,2.15,4.81,4.81V36.23z M26.6,25c2.66,0,4.81-2.15,4.81-4.81s-2.15-4.81-4.81-4.81s-4.81,2.15-4.81,4.81
		S23.95,25,26.6,25z M34.62,34.62c0,0.89-0.72,1.6-1.6,1.6c-0.89,0-1.6-0.72-1.6-1.6c0-2.66-2.15-4.81-4.81-4.81
		s-4.81,2.15-4.81,4.81c0,0.89-0.72,1.6-1.6,1.6s-1.6-0.72-1.6-1.6C18.92,24.02,34.29,24.03,34.62,34.62z"/>
</g>
</svg>
