<?xml version="1.0" encoding="utf-8"?>
<!-- Generator: Adobe Illustrator 26.1.0, SVG Export Plug-In . SVG Version: 6.00 Build 0)  -->
<svg version="1.1" id="Capa_1" xmlns="http://www.w3.org/2000/svg" xmlns:xlink="http://www.w3.org/1999/xlink" x="0px" y="0px"
	 viewBox="0 0 50 50" style="enable-background:new 0 0 50 50;" xml:space="preserve">
<style type="text/css">
	.st0{fill:#6737DD;}
	.st1{clip-path:url(#SVGID_00000073699582970188099960000008362012706845794713_);}
	.st2{fill:#D1DDFF;}
	.st3{fill:#0C0078;}
	.st4{fill:#613EEA;}
	.st5{fill:#9AAEFF;}
	.st6{fill:#FF5E75;}
	.st7{fill:url(#SVGID_00000049181958839705021950000006571598423530772142_);}
	.st8{fill:url(#SVGID_00000120536381555695550380000007211835298288469894_);}
	.st9{fill:#1A00AD;}
	.st10{fill:#FF5000;}
	.st11{fill:url(#SVGID_00000023967504312479155760000013507958406956718235_);}
	.st12{fill:url(#SVGID_00000013155571072425695310000003046971730991707025_);}
	.st13{fill:url(#SVGID_00000167398186479176006970000010070479513405281430_);}
	.st14{fill:#FF3F5F;}
	.st15{fill:url(#SVGID_00000182503572167209086950000017706795813821096369_);}
	.st16{fill:#FF134C;}
	.st17{fill:#0B0043;}
	.st18{fill:url(#SVGID_00000158022237538954377620000001770908623649895347_);}
	.st19{fill:#FFAC00;}
	.st20{clip-path:url(#SVGID_00000165210323622653110100000014759561576413499035_);}
	.st21{fill:url(#SVGID_00000071520767268272246510000000553279550283261067_);}
	.st22{fill:#0D0078;}
	.st23{fill:url(#SVGID_00000067959087780949247210000007265560611161851799_);}
	.st24{fill:#FFD300;}
	.st25{fill:url(#SVGID_00000139290372138850965900000018110482663694080919_);}
	.st26{fill:url(#SVGID_00000088117168551658527680000001110358058633202856_);}
	.st27{fill:url(#SVGID_00000066495947024725489410000015670166422392950403_);}
	.st28{fill:#FFE38F;}
	.st29{fill:#FF9600;}
	.st30{fill:#00B3DB;}
	.st31{clip-path:url(#SVGID_00000058554290890547199650000005860900899497862552_);}
	.st32{fill:url(#SVGID_00000036216538658287348980000002663667860581013650_);}
	.st33{fill:url(#SVGID_00000023244916785256533670000004239400085474522544_);}
	.st34{fill:url(#SVGID_00000116929767495767696300000002580070742125590691_);}
	.st35{fill:#380F81;}
	.st36{fill:#FFFFFF;}
	.st37{fill:#00ACE7;}
	.st38{fill:#F64871;}
	.st39{clip-path:url(#SVGID_00000030453463167079284970000016037689808784591291_);}
	.st40{fill:#FF3A55;}
	.st41{fill:#230756;}
	.st42{fill:#CDE7EC;}
	.st43{fill:#B0DAE1;}
	.st44{fill:#FF1343;}
	.st45{fill:#B0D3D8;}
	.st46{fill:#E2EFF3;}
	.st47{fill:#B4A2FF;}
	.st48{fill:#FF7300;}
	.st49{fill:#858686;}
	.st50{opacity:0.6;fill:#FF9600;}
	.st51{fill:url(#SVGID_00000076594095851693698970000016480766198658106244_);}
	.st52{fill:#4195D0;}
	.st53{fill:#76C5DE;}
</style>
<g>
	<path class="st29" d="M39.56,12.05h-5.02c-0.77-3.76-4.09-6.47-7.93-6.47h-3.24c-3.84,0-7.15,2.71-7.93,6.47h-5.02
		c-0.89,0-1.62,0.72-1.62,1.62s0.72,1.62,1.62,1.62h1.62v21.04c0.01,4.47,3.62,8.09,8.09,8.09h9.71c4.47-0.01,8.09-3.62,8.09-8.09
		V15.29h1.62c0.89,0,1.62-0.72,1.62-1.62S40.46,12.05,39.56,12.05z M23.38,8.82h3.24c2.06,0,3.89,1.3,4.58,3.24H18.8
		C19.49,10.12,21.33,8.82,23.38,8.82z M34.71,36.33c0,2.68-2.17,4.85-4.85,4.85h-9.71c-2.68,0-4.85-2.17-4.85-4.85V15.29h19.42
		V36.33z"/>
	<path class="st29" d="M21.76,34.71c0.89,0,1.62-0.72,1.62-1.62v-9.71c0-0.89-0.72-1.62-1.62-1.62c-0.89,0-1.62,0.72-1.62,1.62v9.71
		C20.15,33.98,20.87,34.71,21.76,34.71z"/>
	<path class="st29" d="M28.24,34.71c0.89,0,1.62-0.72,1.62-1.62v-9.71c0-0.89-0.72-1.62-1.62-1.62c-0.89,0-1.62,0.72-1.62,1.62v9.71
		C26.62,33.98,27.34,34.71,28.24,34.71z"/>
</g>
</svg>
