<?xml version="1.0" encoding="utf-8"?>
<!-- Generator: Adobe Illustrator 26.1.0, SVG Export Plug-In . SVG Version: 6.00 Build 0)  -->
<svg version="1.1" id="Capa_1" xmlns="http://www.w3.org/2000/svg" xmlns:xlink="http://www.w3.org/1999/xlink" x="0px" y="0px"
	 viewBox="0 0 50 50" style="enable-background:new 0 0 50 50;" xml:space="preserve">
<style type="text/css">
	.st0{fill:#6737DD;}
	.st1{clip-path:url(#SVGID_00000072273340464365615440000013595296771318181514_);}
	.st2{fill:#D1DDFF;}
	.st3{fill:#0C0078;}
	.st4{fill:#613EEA;}
	.st5{fill:#9AAEFF;}
	.st6{fill:#FF5E75;}
	.st7{fill:url(#SVGID_00000086673633318286944740000007981857144833652927_);}
	.st8{fill:url(#SVGID_00000063599928247624728360000015140683820872208568_);}
	.st9{fill:#1A00AD;}
	.st10{fill:#FF5000;}
	.st11{fill:url(#SVGID_00000013886291857507565180000011530297884030222764_);}
	.st12{fill:url(#SVGID_00000073711509045414186030000012297447217023124152_);}
	.st13{fill:url(#SVGID_00000054965184328209451040000008839526244585079181_);}
	.st14{fill:#FF3F5F;}
	.st15{fill:url(#SVGID_00000126323650223771730750000015349552149468578207_);}
	.st16{fill:#FF134C;}
	.st17{fill:#0B0043;}
	.st18{fill:url(#SVGID_00000013891570694320653650000002050229080467128463_);}
	.st19{fill:#FFAC00;}
	.st20{clip-path:url(#SVGID_00000157299410552295124160000003971396342122856619_);}
	.st21{fill:url(#SVGID_00000017501304794876791830000008163807501227930527_);}
	.st22{fill:#0D0078;}
	.st23{fill:url(#SVGID_00000011729129485308432550000002292980955370530432_);}
	.st24{fill:#FFD300;}
	.st25{fill:url(#SVGID_00000106106216601081747310000012513802749678052224_);}
	.st26{fill:url(#SVGID_00000127003621307440376300000001629632159826571196_);}
	.st27{fill:url(#SVGID_00000161591598433574972400000009810225135192988339_);}
	.st28{fill:#FFE38F;}
	.st29{fill:#FF9600;}
	.st30{fill:#00B3DB;}
	.st31{clip-path:url(#SVGID_00000093144495019532476860000009346628543044485803_);}
	.st32{fill:url(#SVGID_00000104674976203427843460000016867631094176190867_);}
	.st33{fill:url(#SVGID_00000085249567563197625190000010219168673047895195_);}
	.st34{fill:url(#SVGID_00000056407039472711625830000011493499369715792823_);}
	.st35{fill:#380F81;}
	.st36{fill:#FFFFFF;}
	.st37{fill:#00ACE7;}
	.st38{fill:#F64871;}
	.st39{clip-path:url(#SVGID_00000147206928807691513710000005752748956442832808_);}
	.st40{fill:#FF3A55;}
	.st41{fill:#230756;}
	.st42{fill:#CDE7EC;}
	.st43{fill:#B0DAE1;}
	.st44{fill:#FF1343;}
	.st45{fill:#B0D3D8;}
	.st46{fill:#E2EFF3;}
	.st47{fill:#B4A2FF;}
	.st48{fill:#FF7300;}
	.st49{fill:#858686;}
	.st50{opacity:0.6;fill:#FF9600;}
	.st51{fill:url(#SVGID_00000177469555255387467920000005215335277831481756_);}
	.st52{fill:#4195D0;}
	.st53{fill:#76C5DE;}
</style>
<g>
	<path class="st29" d="M35.85,41c-1,0-1.95-0.4-2.65-1.11L25,31.73l-8.2,8.16c-1.08,1.09-2.71,1.42-4.13,0.81
		c-1.43-0.57-2.35-1.96-2.34-3.5V15.67C10.34,11.98,13.32,9,17,9h16c3.68,0,6.67,2.98,6.67,6.67V37.2c0.02,1.54-0.91,2.92-2.33,3.5
		C36.86,40.9,36.36,41,35.85,41z M17,11.67c-2.21,0-4,1.79-4,4V37.2c0,0.62,0.5,1.12,1.12,1.13c0.3,0,0.58-0.12,0.79-0.33l0,0
		l9.15-9.09c0.52-0.52,1.36-0.52,1.88,0L35.09,38c0.44,0.44,1.15,0.43,1.59-0.01C36.88,37.78,37,37.5,37,37.2V15.67
		c0-2.21-1.79-4-4-4H17z"/>
</g>
</svg>
