<?xml version="1.0" encoding="utf-8"?>
<!-- Generator: Adobe Illustrator 26.1.0, SVG Export Plug-In . SVG Version: 6.00 Build 0)  -->
<svg version="1.1" id="Capa_1" xmlns="http://www.w3.org/2000/svg" xmlns:xlink="http://www.w3.org/1999/xlink" x="0px" y="0px"
	 viewBox="0 0 80 80" style="enable-background:new 0 0 80 80;" xml:space="preserve">
<style type="text/css">
	.st0{fill:#6737DD;}
	.st1{clip-path:url(#SVGID_00000059292591668853248880000000412899977254771601_);}
	.st2{fill:#D1DDFF;}
	.st3{fill:#0C0078;}
	.st4{fill:#613EEA;}
	.st5{fill:#9AAEFF;}
	.st6{fill:#FF5E75;}
	.st7{fill:url(#SVGID_00000107561600311971418830000002513657277491551670_);}
	.st8{fill:url(#SVGID_00000121981069752399234600000006001435616502999188_);}
	.st9{fill:#1A00AD;}
	.st10{fill:#FF5000;}
	.st11{fill:url(#SVGID_00000037687619674259773740000001309357099364317884_);}
	.st12{fill:url(#SVGID_00000076586407221753511420000003381925411233409701_);}
	.st13{fill:url(#SVGID_00000013887572915504504150000015570014781093956497_);}
	.st14{fill:#FF3F5F;}
	.st15{fill:url(#SVGID_00000091002192922908767640000008817651710181077179_);}
	.st16{fill:#FF134C;}
	.st17{fill:#0B0043;}
	.st18{fill:url(#SVGID_00000010998933911805083350000018080313315534365590_);}
	.st19{fill:#FFAC00;}
	.st20{clip-path:url(#SVGID_00000104678311637769169600000012732239807517856186_);}
	.st21{fill:url(#SVGID_00000076591686032619969250000016101094907230768772_);}
	.st22{fill:#0D0078;}
	.st23{fill:url(#SVGID_00000023277987275571094610000014696593178340200363_);}
	.st24{fill:#FFD300;}
	.st25{fill:url(#SVGID_00000158007308185307692960000013533797905619138692_);}
	.st26{fill:url(#SVGID_00000181069367860755132330000013284709941600276649_);}
	.st27{fill:url(#SVGID_00000054267904731905050660000004483278374464419993_);}
	.st28{fill:#FFE38F;}
	.st29{fill:#FF9600;}
	.st30{fill:#00B3DB;}
	.st31{clip-path:url(#SVGID_00000173875061395112812690000014785479699482306962_);}
	.st32{fill:url(#SVGID_00000140710348866983831830000015765428199634824086_);}
	.st33{fill:url(#SVGID_00000142171408242755686870000013587299892782093187_);}
	.st34{fill:url(#SVGID_00000160157242516679894290000004795883218702641561_);}
	.st35{fill:#380F81;}
	.st36{fill:#FFFFFF;}
	.st37{fill:#00ACE7;}
	.st38{fill:#F64871;}
	.st39{clip-path:url(#SVGID_00000128465580156871216370000000256568969116271787_);}
	.st40{fill:#FF3A55;}
	.st41{fill:#230756;}
	.st42{fill:#CDE7EC;}
	.st43{fill:#B0DAE1;}
	.st44{fill:#FF1343;}
	.st45{fill:#B0D3D8;}
	.st46{fill:#E2EFF3;}
	.st47{fill:#B4A2FF;}
	.st48{fill:#FF7300;}
	.st49{fill:#858686;}
	.st50{opacity:0.6;fill:#FF9600;}
	.st51{fill:url(#SVGID_00000117673132406507062130000013107129913700422287_);}
	.st52{fill:#4195D0;}
	.st53{fill:#76C5DE;}
</style>
<g>
	<g>
		<path class="st36" d="M70.59,40c0,16.9-13.7,30.59-30.59,30.59S9.41,56.9,9.41,40c0-1.41,1.14-2.55,2.55-2.55s2.55,1.14,2.55,2.55
			c0,14.08,11.41,25.49,25.49,25.49S65.49,54.08,65.49,40S54.08,14.51,40,14.51c-1.41,0-2.55-1.14-2.55-2.55S38.59,9.41,40,9.41
			C56.89,9.43,70.57,23.11,70.59,40z M35.61,37.45H29.8c-1.41,0-2.55,1.14-2.55,2.55s1.14,2.55,2.55,2.55h5.81
			c1.4,2.43,4.51,3.27,6.94,1.87c2.43-1.4,3.27-4.51,1.87-6.94c-0.45-0.78-1.09-1.42-1.87-1.87v-8.35c0-1.41-1.14-2.55-2.55-2.55
			s-2.55,1.14-2.55,2.55v8.35C36.69,36.05,36.05,36.69,35.61,37.45z M14.06,31.8c1.41,0,2.55-1.14,2.55-2.55
			c0-1.41-1.14-2.55-2.55-2.55s-2.55,1.14-2.55,2.55C11.52,30.66,12.66,31.8,14.06,31.8z M20.17,22.68c1.41,0,2.55-1.14,2.55-2.55
			s-1.14-2.55-2.55-2.55c-1.41,0-2.55,1.14-2.55,2.55S18.76,22.68,20.17,22.68z M29.24,16.65c1.41,0,2.55-1.14,2.55-2.55
			s-1.14-2.55-2.55-2.55s-2.55,1.14-2.55,2.55S27.83,16.65,29.24,16.65z"/>
	</g>
</g>
</svg>
