<?xml version="1.0" encoding="utf-8"?>
<!-- Generator: Adobe Illustrator 26.1.0, SVG Export Plug-In . SVG Version: 6.00 Build 0)  -->
<svg version="1.1" id="Capa_1" xmlns="http://www.w3.org/2000/svg" xmlns:xlink="http://www.w3.org/1999/xlink" x="0px" y="0px"
	 viewBox="0 0 50 50" style="enable-background:new 0 0 50 50;" xml:space="preserve">
<style type="text/css">
	.st0{fill:#6737DD;}
	.st1{clip-path:url(#SVGID_00000054243712768674584740000000208253016518408092_);}
	.st2{fill:#D1DDFF;}
	.st3{fill:#0C0078;}
	.st4{fill:#613EEA;}
	.st5{fill:#9AAEFF;}
	.st6{fill:#FF5E75;}
	.st7{fill:url(#SVGID_00000105421356559573724240000000862675766951174542_);}
	.st8{fill:url(#SVGID_00000180342553158262649380000002671149939060149400_);}
	.st9{fill:#1A00AD;}
	.st10{fill:#FF5000;}
	.st11{fill:url(#SVGID_00000104692922308605214100000008905270425686046605_);}
	.st12{fill:url(#SVGID_00000065770911456220258670000017678303800371518610_);}
	.st13{fill:url(#SVGID_00000145016171266745659180000003519430501921274529_);}
	.st14{fill:#FF3F5F;}
	.st15{fill:url(#SVGID_00000051378170845701299460000015132054793684552379_);}
	.st16{fill:#FF134C;}
	.st17{fill:#0B0043;}
	.st18{fill:url(#SVGID_00000056387269780955150150000003830884789824194192_);}
	.st19{fill:#FFAC00;}
	.st20{clip-path:url(#SVGID_00000053515681360515810980000006421940112213926837_);}
	.st21{fill:url(#SVGID_00000079453233783503886990000007615459627896648361_);}
	.st22{fill:#0D0078;}
	.st23{fill:url(#SVGID_00000010993112763280306590000006702882562521420963_);}
	.st24{fill:#FFD300;}
	.st25{fill:url(#SVGID_00000084511421846922785840000009797879941453126809_);}
	.st26{fill:url(#SVGID_00000008119218225839462820000017641150210365309847_);}
	.st27{fill:url(#SVGID_00000085957076962204598840000009117014940616497047_);}
	.st28{fill:#FFE38F;}
	.st29{fill:#FF9600;}
	.st30{fill:#00B3DB;}
	.st31{clip-path:url(#SVGID_00000092436079351060548740000016760122152397541507_);}
	.st32{fill:url(#SVGID_00000021814167889034193120000013821084039242543029_);}
	.st33{fill:url(#SVGID_00000009555038202177246300000000849114370963195324_);}
	.st34{fill:url(#SVGID_00000152945527836213528280000005499192007503595424_);}
	.st35{fill:#380F81;}
	.st36{fill:#FFFFFF;}
	.st37{fill:#00ACE7;}
	.st38{fill:#F64871;}
	.st39{clip-path:url(#SVGID_00000080911880165679843960000002963473378055125169_);}
	.st40{fill:#FF3A55;}
	.st41{fill:#230756;}
	.st42{fill:#CDE7EC;}
	.st43{fill:#B0DAE1;}
	.st44{fill:#FF1343;}
	.st45{fill:#B0D3D8;}
	.st46{fill:#E2EFF3;}
	.st47{fill:#B4A2FF;}
	.st48{fill:#FF7300;}
	.st49{fill:#858686;}
	.st50{opacity:0.6;fill:#FF9600;}
	.st51{fill:url(#SVGID_00000008145477520953114970000003765120044094499230_);}
	.st52{fill:#4195D0;}
	.st53{fill:#76C5DE;}
</style>
<g>
	<g>
		<path class="st49" d="M39.98,9.82c-1.99-1.99-5.21-1.99-7.2,0L9.91,32.68C8.59,34,7.85,35.79,7.85,37.65v2.89
			c0,0.78,0.63,1.41,1.41,1.41h2.89c1.87,0.01,3.66-0.74,4.97-2.06l22.87-22.87C41.97,15.03,41.97,11.81,39.98,9.82z M15.13,37.9
			c-0.79,0.79-1.86,1.23-2.98,1.23h-1.48v-1.48c0-1.12,0.44-2.19,1.24-2.98l17.36-17.36l3.23,3.23L15.13,37.9z M37.99,15.03
			l-3.52,3.53l-3.23-3.23l3.53-3.53c0.89-0.89,2.34-0.89,3.23,0C38.88,12.7,38.88,14.15,37.99,15.03L37.99,15.03L37.99,15.03z"/>
	</g>
</g>
</svg>
