<?xml version="1.0" encoding="utf-8"?>
<!-- Generator: Adobe Illustrator 26.1.0, SVG Export Plug-In . SVG Version: 6.00 Build 0)  -->
<svg version="1.1" id="Capa_1" xmlns="http://www.w3.org/2000/svg" xmlns:xlink="http://www.w3.org/1999/xlink" x="0px" y="0px"
	 viewBox="0 0 80 80" style="enable-background:new 0 0 80 80;" xml:space="preserve">
<style type="text/css">
	.st0{fill:#6737DD;}
	.st1{clip-path:url(#SVGID_00000116920030934261039730000010311358180031097275_);}
	.st2{fill:#D1DDFF;}
	.st3{fill:#0C0078;}
	.st4{fill:#613EEA;}
	.st5{fill:#9AAEFF;}
	.st6{fill:#FF5E75;}
	.st7{fill:url(#SVGID_00000158014036319837171100000002535510244076416447_);}
	.st8{fill:url(#SVGID_00000066495535237976238690000010346778953353271430_);}
	.st9{fill:#1A00AD;}
	.st10{fill:#FF5000;}
	.st11{fill:url(#SVGID_00000064334074944449427480000010243297225639497658_);}
	.st12{fill:url(#SVGID_00000075856328606512140620000010572724278779109050_);}
	.st13{fill:url(#SVGID_00000100374570024857660030000016206253047983108224_);}
	.st14{fill:#FF3F5F;}
	.st15{fill:url(#SVGID_00000132798706099696910190000014956295765113250216_);}
	.st16{fill:#FF134C;}
	.st17{fill:#0B0043;}
	.st18{fill:url(#SVGID_00000040558345004505784150000009411861478109205897_);}
	.st19{fill:#FFAC00;}
	.st20{clip-path:url(#SVGID_00000070119206296085097430000014049877257553970866_);}
	.st21{fill:url(#SVGID_00000122707976850688995510000017777542261192586153_);}
	.st22{fill:#0D0078;}
	.st23{fill:url(#SVGID_00000096761167800044173570000005841199530607268017_);}
	.st24{fill:#FFD300;}
	.st25{fill:url(#SVGID_00000123429761362539006920000007784792103209082791_);}
	.st26{fill:url(#SVGID_00000108299545711880019400000008553431128445416097_);}
	.st27{fill:url(#SVGID_00000119803036685251905070000005408471345427218077_);}
	.st28{fill:#FFE38F;}
	.st29{fill:#FF9600;}
	.st30{fill:#00B3DB;}
	.st31{clip-path:url(#SVGID_00000053525307950700258580000009529869765392393883_);}
	.st32{fill:url(#SVGID_00000145020426302674792050000014231529471399868563_);}
	.st33{fill:url(#SVGID_00000132789217830495927760000012265880821926967174_);}
	.st34{fill:url(#SVGID_00000008126987070838575310000009729609238202477441_);}
	.st35{fill:#380F81;}
	.st36{fill:#FFFFFF;}
	.st37{fill:#00ACE7;}
	.st38{fill:#F64871;}
	.st39{clip-path:url(#SVGID_00000044893286793552207880000009646020299513667774_);}
	.st40{fill:#FF3A55;}
	.st41{fill:#230756;}
	.st42{fill:#CDE7EC;}
	.st43{fill:#B0DAE1;}
	.st44{fill:#FF1343;}
	.st45{fill:#B0D3D8;}
	.st46{fill:#E2EFF3;}
	.st47{fill:#B4A2FF;}
	.st48{fill:#FF7300;}
	.st49{fill:#858686;}
	.st50{opacity:0.6;fill:#FF9600;}
	.st51{fill:url(#SVGID_00000057826748228495484500000002062421714957177527_);}
	.st52{fill:#4195D0;}
	.st53{fill:#76C5DE;}
</style>
<g>
	<g>
		<path class="st36" d="M57.89,70.68H22.11c-7.06-0.01-12.77-5.73-12.78-12.78V22.11c0.01-7.06,5.73-12.77,12.78-12.78h35.79
			c7.06,0.01,12.77,5.73,12.78,12.78v35.79C70.67,64.95,64.95,70.67,57.89,70.68z M22.11,14.44c-4.24,0-7.67,3.43-7.67,7.67v35.79
			c0,4.24,3.43,7.67,7.67,7.67h35.79c4.24,0,7.67-3.43,7.67-7.67V22.11c0-4.24-3.43-7.67-7.67-7.67H22.11z M33.21,52.79
			c-1.07,0-2.11-0.29-3.03-0.83c-1.85-1.06-2.99-3.03-2.98-5.17V33.2c0-3.3,2.67-5.98,5.97-5.98c1.04,0,2.07,0.27,2.98,0.79
			l13.49,6.74c2.9,1.57,3.98,5.19,2.42,8.09c-0.53,0.98-1.32,1.8-2.29,2.35l-13.74,6.87C35.16,52.55,34.19,52.8,33.21,52.79
			L33.21,52.79z M33.14,32.34c-0.14,0-0.28,0.04-0.4,0.11c-0.27,0.15-0.44,0.44-0.43,0.75V46.8c0,0.48,0.39,0.86,0.87,0.86
			c0.14,0,0.29-0.04,0.41-0.11l13.74-6.87c0.21-0.16,0.32-0.42,0.31-0.68c0.01-0.31-0.16-0.6-0.43-0.75l-13.48-6.74
			C33.55,32.41,33.35,32.35,33.14,32.34L33.14,32.34z"/>
	</g>
</g>
</svg>
