<?xml version="1.0" encoding="utf-8"?>
<!-- Generator: Adobe Illustrator 26.1.0, SVG Export Plug-In . SVG Version: 6.00 Build 0)  -->
<svg version="1.1" id="Capa_1" xmlns="http://www.w3.org/2000/svg" xmlns:xlink="http://www.w3.org/1999/xlink" x="0px" y="0px"
	 viewBox="0 0 80 80" style="enable-background:new 0 0 80 80;" xml:space="preserve">
<style type="text/css">
	.st0{fill:#6737DD;}
	.st1{clip-path:url(#SVGID_00000067940762211365930910000017642345472449217983_);}
	.st2{fill:#D1DDFF;}
	.st3{fill:#0C0078;}
	.st4{fill:#613EEA;}
	.st5{fill:#9AAEFF;}
	.st6{fill:#FF5E75;}
	.st7{fill:url(#SVGID_00000163054332940075614520000014824757477860506784_);}
	.st8{fill:url(#SVGID_00000066485074296945764260000001304773385568431259_);}
	.st9{fill:#1A00AD;}
	.st10{fill:#FF5000;}
	.st11{fill:url(#SVGID_00000183206790998269949550000018256027959026337690_);}
	.st12{fill:url(#SVGID_00000055674355298464216550000001853413615511228859_);}
	.st13{fill:url(#SVGID_00000155853386847056541570000018256457545200041111_);}
	.st14{fill:#FF3F5F;}
	.st15{fill:url(#SVGID_00000113354528187953460400000017986910509363601568_);}
	.st16{fill:#FF134C;}
	.st17{fill:#0B0043;}
	.st18{fill:url(#SVGID_00000059288872464167941680000004247571371190598534_);}
	.st19{fill:#FFAC00;}
	.st20{clip-path:url(#SVGID_00000018915592405571115530000013780054283375518873_);}
	.st21{fill:url(#SVGID_00000099661658426450234490000017745869191100979645_);}
	.st22{fill:#0D0078;}
	.st23{fill:url(#SVGID_00000070091950801386734300000003691748440095537333_);}
	.st24{fill:#FFD300;}
	.st25{fill:url(#SVGID_00000127731991138046187370000008333781524090775446_);}
	.st26{fill:url(#SVGID_00000000181740188426438240000015663174538237244083_);}
	.st27{fill:url(#SVGID_00000000216380458329101960000011058936317855842187_);}
	.st28{fill:#FFE38F;}
	.st29{fill:#FF9600;}
	.st30{fill:#00B3DB;}
	.st31{clip-path:url(#SVGID_00000016063289984956721540000014509554214420229026_);}
	.st32{fill:url(#SVGID_00000181775706712322571590000015566740356692842429_);}
	.st33{fill:url(#SVGID_00000181809623769986774650000005084741598322200998_);}
	.st34{fill:url(#SVGID_00000023997687663186550750000010753011038528861093_);}
	.st35{fill:#380F81;}
	.st36{fill:#FFFFFF;}
	.st37{fill:#00ACE7;}
	.st38{fill:#F64871;}
	.st39{clip-path:url(#SVGID_00000097491445296619789960000008588443911428672421_);}
	.st40{fill:#FF3A55;}
	.st41{fill:#230756;}
	.st42{fill:#CDE7EC;}
	.st43{fill:#B0DAE1;}
	.st44{fill:#FF1343;}
	.st45{fill:#B0D3D8;}
	.st46{fill:#E2EFF3;}
	.st47{fill:#B4A2FF;}
	.st48{fill:#FF7300;}
	.st49{fill:#858686;}
	.st50{opacity:0.6;fill:#FF9600;}
	.st51{fill:url(#SVGID_00000051351295241601122420000015426088309084095668_);}
	.st52{fill:#4195D0;}
	.st53{fill:#76C5DE;}
</style>
<g>
	<g>
		<g>
			<path class="st29" d="M34.5,31.91v19.42c0,0.96,0.78,1.73,1.74,1.73c0.46,0,0.9-0.19,1.23-0.51l9.69-9.69
				c0.68-0.68,0.69-1.78,0.01-2.46c0,0-0.01-0.01-0.01-0.01l-9.69-9.69c-0.68-0.68-1.78-0.69-2.46-0.01
				C34.69,31.01,34.5,31.45,34.5,31.91z"/>
		</g>
	</g>
	<g>
		<path class="st29" d="M40.37,74.45c-19.06,0-34.56-15.51-34.56-34.57c0-19.06,15.51-34.56,34.56-34.56s34.56,15.51,34.56,34.56
			C74.94,58.95,59.43,74.45,40.37,74.45z M40.37,8.32c-17.4,0-31.56,14.16-31.56,31.56c0,17.41,14.16,31.57,31.56,31.57
			s31.56-14.16,31.56-31.57C71.94,22.48,57.78,8.32,40.37,8.32z"/>
	</g>
</g>
</svg>
