<svg id="Capa_1" data-name="Capa 1" xmlns="http://www.w3.org/2000/svg" viewBox="0 0 80 80"><defs><style>.cls-1{fill:#6689c9;}.cls-1,.cls-2,.cls-3,.cls-4{fill-rule:evenodd;}.cls-2{fill:#4db74b;}.cls-3{fill:#ffcd05;}.cls-4{fill:#e22f31;}</style></defs><g id="G"><path class="cls-1" d="M61.5,54.64a19,19,0,0,1-4,4.82c-9-7-7.25-5.62-8.07-6.36A12.48,12.48,0,0,0,54.34,46c.17-.57.12-.79-.58-.78-4.14,0-8.28,0-12.42,0-.88,0-.88,0-.88-.91,0-2.81,0-5.61,0-8.42,0-.54.09-.75.7-.75q11.46,0,22.92,0c.41,0,.67,0,.74.53C65.76,42.36,65,48.74,61.5,54.64Z"/><path class="cls-2" d="M57.53,59.46a21.4,21.4,0,0,1-9.62,5.27c-8.59,2.17-16.51.8-23.55-4.75a23.94,23.94,0,0,1-6.8-8.49L26,45a17.3,17.3,0,0,0,3.15,5.37c5.78,6.38,14.1,6.58,20.36,2.75C50.24,53.8,48.57,52.48,57.53,59.46Z"/><path class="cls-3" d="M26,45l-8.39,6.51a25.44,25.44,0,0,1,0-23c9.29,7.16,7.88,6.09,8.44,6.45A16.24,16.24,0,0,0,26,45Z"/><path class="cls-4" d="M57.28,21.46c-7.19,7-6.63,7-7.16,6.51-7.21-6.61-20.08-4.1-24.1,7-.56-.36.89.74-8.44-6.45a25.44,25.44,0,0,1,18.59-13.8,24.81,24.81,0,0,1,21,5.86C57.61,20.86,57.7,21.05,57.28,21.46Z"/></g></svg>