<svg id="Capa_1" data-name="Capa 1" xmlns="http://www.w3.org/2000/svg" viewBox="0 0 80 80"><defs><style>.cls-1{fill:#ff7c27;}</style></defs><path class="cls-1" d="M73.62,37.18A33.65,33.65,0,1,0,40.05,72.91H59.61a14,14,0,0,0,14-14ZM68,58.9a8.41,8.41,0,0,1-8.41,8.4H40.05a28,28,0,0,1-3.63-55.8,31.62,31.62,0,0,1,3.64-.23,27.83,27.83,0,0,1,17.87,6.45A28.13,28.13,0,0,1,68,37.45Z"/><path class="cls-1" d="M28.8,30.89H40a2.81,2.81,0,0,0,0-5.61H28.8a2.81,2.81,0,1,0,0,5.61Z"/><path class="cls-1" d="M51.21,36.49H28.8a2.8,2.8,0,1,0,0,5.6H51.21a2.8,2.8,0,0,0,0-5.6Z"/><path class="cls-1" d="M51.21,47.69H28.8a2.81,2.81,0,1,0,0,5.61H51.21a2.81,2.81,0,0,0,0-5.61Z"/></svg>