<?xml version="1.0" encoding="UTF-8"?><svg id="a" xmlns="http://www.w3.org/2000/svg" viewBox="0 0 80 80"><defs><style>.b{fill:#ff7c27;}</style></defs><path class="b" d="M71.97,31.53L50.16,9.73c-5.62-5.6-14.71-5.6-20.33,0L8.03,31.53c-1.62,1.61-2.53,3.81-2.53,6.1v28.22c0,4.76,3.86,8.62,8.62,8.62h51.74c4.76,0,8.62-3.86,8.62-8.62v-28.22c0-2.29-.9-4.48-2.53-6.1Zm-23.34,37.19H31.38v-11.31c0-4.76,3.86-8.62,8.62-8.62s8.62,3.86,8.62,8.62v11.31Zm20.12-2.87c0,1.59-1.29,2.87-2.87,2.87h-11.5v-11.31c0-7.94-6.43-14.37-14.37-14.37s-14.37,6.43-14.37,14.37v11.31H14.13c-1.59,0-2.87-1.29-2.87-2.87v-28.22c0-.76,.31-1.49,.84-2.03L33.9,13.8c3.37-3.36,8.83-3.36,12.2,0l21.8,21.81c.53,.54,.84,1.26,.84,2.02v28.22Z"/></svg>