<svg id="Capa_1" data-name="Capa 1" xmlns="http://www.w3.org/2000/svg" viewBox="0 0 80 80"><defs><style>.cls-1{fill:#ff9b04;}</style></defs><path class="cls-1" d="M40,35.18a7.89,7.89,0,1,1,7.89-7.89A7.89,7.89,0,0,1,40,35.18ZM32,49A8.36,8.36,0,0,1,48,49a2.63,2.63,0,0,0,5.1-1.32c-3.45-13-22.7-13-26.14,0A2.63,2.63,0,0,0,32,49.1L32,49Zm8,22.13a5.33,5.33,0,0,1-3.52-1.34l-9.85-8.3H19A10.52,10.52,0,0,1,8.44,51V19.4A10.52,10.52,0,0,1,19,8.88H61A10.52,10.52,0,0,1,71.56,19.4V51A10.52,10.52,0,0,1,61,61.48h-7.5L43.42,69.84A5.08,5.08,0,0,1,40,71.12ZM19,14.14A5.25,5.25,0,0,0,13.7,19.4V51A5.25,5.25,0,0,0,19,56.22h8.65a2.61,2.61,0,0,1,1.69.62l10.64,9,11-9a2.61,2.61,0,0,1,1.67-.6H61A5.25,5.25,0,0,0,66.3,51V19.4A5.25,5.25,0,0,0,61,14.14Z"/></svg>