<?xml version="1.0" encoding="UTF-8"?><svg id="a" xmlns="http://www.w3.org/2000/svg" viewBox="0 0 779 327"><defs><style>.b{fill:#fff;}</style></defs><g><path class="b" d="M565.27,61.16c-5.16,0-9.22-1.67-12.2-5-2.98-3.33-4.47-8.21-4.47-14.64,0-3.57,.39-6.57,1.16-8.98s1.88-4.37,3.31-5.83c1.44-1.46,3.19-2.54,5.25-3.21,2.06-.67,4.42-1.01,7.07-1.01,5.52,0,9.72,1.51,12.59,4.53,2.87,3.02,4.31,7.86,4.31,14.52,0,6.19-1.45,11.01-4.37,14.46-2.9,3.45-7.12,5.17-12.65,5.17Zm-14.47,23.44h27.95V248.52h-27.95V84.61h0Zm53.71-52.61h27.95V248.52h-27.95V32Zm65.76,248.13c3.74-.91,6.95-2.64,9.64-5.18,2.69-2.54,4.83-5.89,6.43-10.06,1.6-4.16,2.52-9.14,2.74-14.94l-38.1-164.85h30.03l16.95,90.71,4.91,31.31h.93l3.39-31.31,13.67-90.71h29.09l-33.89,169.98c-1.49,7.86-3.37,14.72-5.67,20.6s-5.14,10.75-8.53,14.64-7.42,6.81-12.09,8.75c-4.67,1.94-10.13,2.92-16.36,2.92-5.07,0-10.24-1-15.54-2.97l.11-18.45c4.45,.64,8.53,.5,12.27-.42ZM295.6,67.78v-24.64h-69.05v93.97h0v24.64h0v86.76h24.64v-86.76h27.88v-24.64h-27.88V67.78h44.42Zm221.38,26.26c-7.74-7.5-23.94-12.22-35.92-7.99-9.01,3.19-13.63,9.18-15.37,11.94-1.04-1.3-2.23-2.62-3.62-3.96-7.74-7.5-23.94-12.22-35.92-7.99-5.58,1.97-9.46,5.01-12.03,7.71l-4.15-6.69h-15.19l-1.55,1.33V248.52h24.82V125c.02-1.51,.35-7.63,4.26-11.2,4.48-4.08,9.15-4.08,11.39-4.17,2.23-.1,7.66,.79,11.3,4.58,2.55,2.67,3.06,5.89,3.14,7.58v126.75h24.82V124.98c.02-1.51,.36-7.63,4.26-11.2,4.48-4.08,9.15-4.08,11.39-4.17,2.23-.1,7.66,.79,11.3,4.58,2.55,2.67,3.06,5.89,3.14,7.58v126.75h24.82V116.82c-1.13-8.5-3.14-15.28-10.88-22.78Zm-147.02,26.16v-.9h-.03c-.23-4.21-1.46-13.4-7.75-20.87-8.44-10.04-16.16-13.07-27.79-13.15-11.63-.08-21.74,3.03-28.44,10.2s-8.44,11.15-8.44,11.15l20.06,13.7s3.66-7.41,10.04-9.88c6.37-2.47,16.64,0,17.32,8.84v12.99c-3.78,3.75-9.33,8.61-17.41,14.37-19.82,14.12-32.51,31.48-35.37,49.61-2.85,18.14,.91,39.89,14.51,49.61,12.07,8.62,32.26,9.03,42.18-5.35v.17l4.22,7.83h15.12l1.76-1.7V121.6s.03-.52,.01-1.41Zm-27.1,95.49c-2.57,5.17-6.75,10.11-13.58,10.25-12.64,.28-15.89-10.44-15.51-19.82,.39-9.38,3.64-17.99,13.69-28.42,4.75-4.93,10.56-9.2,15.39-12.35v50.34Z"/><path class="b" d="M95.48,84.98h29.98c1.61,.43,2.82,1.93,2.65,3.64v60.51c-.03,11.61,.11,23.24-.07,34.86-11.59,.1-23.18,0-34.79,.05-20.21,0-40.42,.02-60.64-.01-1.93,.14-3.71-1.54-3.55-3.49-.03-9.22-.01-18.45-.01-27.68-.22-2.02,1.51-3.91,3.56-3.71,20.2-.02,40.4-.01,60.61,0,.09-20.35-.02-40.7,.06-61.05-.11-1.47,1.13-2.38,2.19-3.12h0Z"/><path class="b" d="M128.1,149.13c20.21-.01,40.44-.03,60.65,.01,1.67-.17,2.88,1.11,3.63,2.43v30.22c-.87,1.13-1.98,2.38-3.56,2.23-20.22,.07-40.46-.03-60.69,.06-.03,20.04-.01,40.1-.01,60.15,.01,1.11-.16,2.33-1.05,3.09-.92,.99-2.35,.87-3.56,.9-8.89-.05-17.79,0-26.67-.02-1.93,.22-3.73-1.51-3.56-3.45-.01-20.23,0-40.47-.01-60.69,11.59-.05,23.18,.06,34.79-.05,.17-11.63,.02-23.25,.06-34.87h0Z"/></g><g><path class="b" d="M51.41,270.8v4.45h-13.81v9.82h10.76v4.45h-10.76v14.56h-5.34v-33.28h19.14Z"/><path class="b" d="M79.73,277.7v26.39h-5.34v-3.11c-.84,1.09-1.94,1.94-3.3,2.56s-2.8,.93-4.33,.93c-2.03,0-3.85-.43-5.45-1.29-1.61-.86-2.87-2.14-3.79-3.83-.92-1.69-1.38-3.74-1.38-6.13v-15.52h5.29v14.7c0,2.36,.58,4.17,1.73,5.44,1.15,1.26,2.73,1.89,4.73,1.89s3.58-.63,4.75-1.89c1.17-1.26,1.76-3.07,1.76-5.44v-14.7h5.34Z"/><path class="b" d="M105.22,278.56c1.61,.86,2.86,2.14,3.77,3.83,.9,1.69,1.36,3.74,1.36,6.13v15.56h-5.29v-14.75c0-2.36-.58-4.17-1.73-5.44-1.15-1.26-2.73-1.89-4.73-1.89s-3.58,.63-4.75,1.89c-1.17,1.26-1.76,3.07-1.76,5.44v14.75h-5.34v-26.39h5.34v3.02c.87-1.08,1.99-1.93,3.35-2.54,1.36-.61,2.8-.91,4.33-.91,2.03,0,3.85,.43,5.45,1.29Z"/><path class="b" d="M116.96,283.73c1.08-2.04,2.54-3.63,4.4-4.77,1.86-1.13,3.92-1.7,6.2-1.7,1.69,0,3.35,.38,4.98,1.13,1.64,.75,2.94,1.75,3.91,2.99v-12.74h5.38v35.44h-5.38v-3.97c-.87,1.28-2.08,2.33-3.63,3.16-1.54,.83-3.32,1.25-5.31,1.25-2.25,0-4.3-.58-6.16-1.75-1.86-1.16-3.32-2.79-4.4-4.88-1.08-2.09-1.61-4.46-1.61-7.11s.54-5,1.61-7.04Zm18.39,2.39c-.73-1.34-1.69-2.36-2.88-3.07-1.19-.7-2.47-1.05-3.84-1.05s-2.65,.34-3.84,1.03c-1.19,.69-2.15,1.69-2.88,3.02-.73,1.33-1.1,2.9-1.1,4.72s.37,3.42,1.1,4.79c.73,1.37,1.7,2.42,2.9,3.14,1.2,.72,2.47,1.08,3.81,1.08s2.65-.35,3.84-1.05c1.19-.7,2.15-1.73,2.88-3.09,.73-1.36,1.1-2.95,1.1-4.77s-.37-3.4-1.1-4.74Z"/><path class="b" d="M148.7,283.73c1.08-2.04,2.54-3.63,4.4-4.77,1.86-1.13,3.91-1.7,6.16-1.7,2.03,0,3.8,.41,5.31,1.22s2.72,1.83,3.63,3.04v-3.83h5.38v26.39h-5.38v-3.93c-.91,1.25-2.14,2.28-3.7,3.11-1.56,.83-3.34,1.25-5.34,1.25-2.22,0-4.24-.58-6.08-1.75-1.84-1.16-3.3-2.79-4.38-4.88-1.08-2.09-1.61-4.46-1.61-7.11s.54-5,1.61-7.04Zm18.39,2.39c-.73-1.34-1.69-2.36-2.88-3.07-1.19-.7-2.47-1.05-3.84-1.05s-2.65,.34-3.84,1.03c-1.19,.69-2.15,1.69-2.88,3.02-.73,1.33-1.1,2.9-1.1,4.72s.37,3.42,1.1,4.79c.73,1.37,1.7,2.42,2.9,3.14,1.2,.72,2.47,1.08,3.81,1.08s2.65-.35,3.84-1.05c1.19-.7,2.15-1.73,2.88-3.09,.73-1.36,1.1-2.95,1.1-4.77s-.37-3.4-1.1-4.74Z"/><path class="b" d="M180.43,283.71c1.08-2.06,2.57-3.65,4.47-4.77,1.9-1.12,4.09-1.68,6.55-1.68,3.12,0,5.7,.76,7.75,2.27,2.04,1.52,3.42,3.68,4.14,6.49h-5.76c-.47-1.31-1.22-2.33-2.25-3.06-1.03-.73-2.32-1.1-3.88-1.1-2.18,0-3.92,.79-5.22,2.37-1.3,1.58-1.94,3.79-1.94,6.63s.65,5.06,1.94,6.66c1.29,1.6,3.03,2.39,5.22,2.39,3.09,0,5.13-1.39,6.13-4.17h5.76c-.75,2.68-2.15,4.81-4.21,6.39-2.06,1.58-4.62,2.37-7.68,2.37-2.47,0-4.65-.57-6.55-1.7-1.9-1.13-3.39-2.73-4.47-4.79-1.08-2.06-1.61-4.45-1.61-7.16s.54-5.1,1.61-7.16Z"/><path class="b" d="M208.96,273.2c-.66-.67-.98-1.5-.98-2.49s.33-1.82,.98-2.49c.65-.67,1.47-1.01,2.43-1.01s1.73,.34,2.39,1.01,.98,1.5,.98,2.49-.33,1.82-.98,2.49-1.45,1.01-2.39,1.01-1.78-.34-2.43-1.01Zm5.05,4.5v26.39h-5.34v-26.39h5.34Z"/><path class="b" d="M225.62,302.82c-1.97-1.13-3.51-2.73-4.63-4.79-1.12-2.06-1.69-4.45-1.69-7.16s.58-5.06,1.73-7.14c1.15-2.07,2.73-3.67,4.73-4.79,2-1.12,4.23-1.68,6.69-1.68s4.7,.56,6.69,1.68c2,1.12,3.57,2.71,4.73,4.79,1.15,2.08,1.73,4.45,1.73,7.14s-.59,5.06-1.78,7.14c-1.19,2.08-2.8,3.68-4.84,4.81-2.04,1.13-4.3,1.7-6.76,1.7s-4.63-.57-6.6-1.7Zm10.46-4.05c1.2-.67,2.18-1.68,2.93-3.02,.75-1.34,1.12-2.97,1.12-4.88s-.36-3.54-1.08-4.86c-.72-1.32-1.67-2.32-2.86-2.99-1.19-.67-2.46-1.01-3.84-1.01s-2.64,.34-3.81,1.01-2.1,1.67-2.78,2.99c-.69,1.33-1.03,2.95-1.03,4.86,0,2.84,.71,5.04,2.13,6.58,1.42,1.55,3.21,2.32,5.36,2.32,1.37,0,2.66-.34,3.86-1.01Zm1.19-28.59l-10.34,5.22v-4.02l10.34-5.84v4.65Z"/><path class="b" d="M269.36,278.56c1.61,.86,2.86,2.14,3.77,3.83,.9,1.69,1.36,3.74,1.36,6.13v15.56h-5.29v-14.75c0-2.36-.58-4.17-1.73-5.44-1.15-1.26-2.73-1.89-4.73-1.89s-3.58,.63-4.75,1.89c-1.17,1.26-1.76,3.07-1.76,5.44v14.75h-5.34v-26.39h5.34v3.02c.87-1.08,1.99-1.93,3.35-2.54,1.36-.61,2.8-.91,4.33-.91,2.03,0,3.85,.43,5.45,1.29Z"/><path class="b" d="M315.3,289.82c1.22,1.56,1.83,3.34,1.83,5.32,0,1.69-.43,3.22-1.29,4.57-.86,1.36-2.1,2.43-3.72,3.21-1.62,.78-3.51,1.17-5.66,1.17h-13.01v-33.28h12.4c2.21,0,4.12,.38,5.71,1.15,1.59,.77,2.79,1.8,3.6,3.09,.81,1.29,1.22,2.74,1.22,4.33,0,1.92-.5,3.51-1.5,4.79-1,1.28-2.34,2.22-4.03,2.83,1.75,.32,3.23,1.26,4.45,2.83Zm-16.52-5.03h6.6c1.75,0,3.11-.41,4.1-1.22s1.47-1.99,1.47-3.52-.49-2.67-1.47-3.52c-.98-.85-2.35-1.27-4.1-1.27h-6.6v9.53Zm11.47,13.5c1.03-.89,1.54-2.14,1.54-3.74s-.55-2.92-1.64-3.88c-1.09-.96-2.54-1.44-4.35-1.44h-7.02v10.39h7.21c1.81,0,3.23-.45,4.26-1.34Z"/><path class="b" d="M346.37,292.93h-19.7c.16,2.11,.92,3.8,2.29,5.08,1.37,1.28,3.06,1.92,5.05,1.92,2.87,0,4.9-1.23,6.08-3.69h5.76c-.78,2.43-2.19,4.41-4.24,5.96-2.04,1.55-4.58,2.32-7.61,2.32-2.47,0-4.67-.57-6.62-1.7-1.95-1.13-3.48-2.73-4.59-4.79-1.11-2.06-1.66-4.45-1.66-7.16s.54-5.1,1.61-7.16,2.59-3.65,4.54-4.77c1.95-1.12,4.19-1.68,6.72-1.68s4.6,.54,6.51,1.63c1.9,1.09,3.39,2.61,4.45,4.57,1.06,1.96,1.59,4.22,1.59,6.78,0,.99-.06,1.88-.19,2.68Zm-5.38-4.41c-.03-2.01-.73-3.62-2.11-4.84-1.37-1.21-3.07-1.82-5.1-1.82-1.84,0-3.42,.6-4.73,1.8-1.31,1.2-2.09,2.82-2.34,4.86h14.28Z"/><path class="b" d="M360.25,278.39c1.29-.75,2.83-1.13,4.61-1.13v5.65h-1.36c-2.09,0-3.67,.54-4.75,1.63-1.08,1.09-1.61,2.97-1.61,5.65v13.89h-5.34v-26.39h5.34v3.83c.78-1.34,1.82-2.39,3.11-3.14Z"/><path class="b" d="M376,282.15v14.61c0,.99,.23,1.7,.68,2.13,.45,.43,1.22,.65,2.32,.65h3.28v4.55h-4.21c-2.4,0-4.24-.57-5.52-1.72-1.28-1.15-1.92-3.02-1.92-5.6v-14.61h-3.04v-4.45h3.04v-6.56h5.38v6.56h6.27v4.45h-6.27Z"/><path class="b" d="M394.68,270.61l-10.34,5.22v-4.02l10.34-5.84v4.65Zm-2.15,7.09v26.39h-5.34v-26.39h5.34Z"/><path class="b" d="M418.01,278.56c1.61,.86,2.86,2.14,3.77,3.83,.9,1.69,1.36,3.74,1.36,6.13v15.56h-5.29v-14.75c0-2.36-.58-4.17-1.73-5.44-1.15-1.26-2.73-1.89-4.73-1.89s-3.58,.63-4.75,1.89c-1.17,1.26-1.76,3.07-1.76,5.44v14.75h-5.34v-26.39h5.34v3.02c.87-1.08,1.99-1.93,3.35-2.54,1.36-.61,2.8-.91,4.33-.91,2.03,0,3.85,.43,5.45,1.29Z"/><path class="b" d="M448.57,302.24c-2.54-1.45-4.56-3.48-6.04-6.08-1.48-2.6-2.22-5.53-2.22-8.79s.74-6.18,2.22-8.76c1.48-2.59,3.49-4.61,6.04-6.06,2.54-1.45,5.33-2.18,8.35-2.18s5.86,.73,8.4,2.18c2.54,1.45,4.55,3.47,6.01,6.06,1.47,2.59,2.2,5.51,2.2,8.76s-.73,6.19-2.2,8.79c-1.47,2.6-3.47,4.63-6.01,6.08-2.54,1.45-5.34,2.18-8.4,2.18s-5.81-.73-8.35-2.18Zm14.11-4.07c1.69-1.01,3-2.44,3.96-4.31,.95-1.87,1.43-4.03,1.43-6.49s-.48-4.61-1.43-6.46c-.95-1.85-2.27-3.27-3.96-4.26-1.68-.99-3.6-1.48-5.76-1.48s-4.07,.5-5.76,1.48c-1.69,.99-3,2.41-3.96,4.26-.95,1.85-1.43,4.01-1.43,6.46s.48,4.62,1.43,6.49c.95,1.87,2.27,3.3,3.96,4.31,1.68,1.01,3.6,1.51,5.76,1.51s4.07-.5,5.76-1.51Z"/><path class="b" d="M482.69,303.39c-1.61-.75-2.88-1.77-3.81-3.07-.94-1.29-1.44-2.74-1.5-4.33h5.52c.09,1.12,.62,2.05,1.57,2.8,.95,.75,2.15,1.13,3.58,1.13s2.66-.29,3.49-.89c.83-.59,1.24-1.35,1.24-2.27,0-.99-.46-1.72-1.38-2.2-.92-.48-2.38-1.01-4.38-1.58-1.94-.54-3.51-1.07-4.73-1.58-1.22-.51-2.27-1.29-3.16-2.35-.89-1.05-1.33-2.44-1.33-4.17,0-1.4,.41-2.69,1.22-3.85,.81-1.17,1.97-2.08,3.49-2.75s3.25-1.01,5.22-1.01c2.93,0,5.3,.76,7.09,2.27,1.79,1.52,2.75,3.58,2.88,6.2h-5.34c-.09-1.18-.56-2.12-1.4-2.83-.84-.7-1.98-1.05-3.42-1.05s-2.48,.27-3.23,.81c-.75,.54-1.12,1.26-1.12,2.15,0,.7,.25,1.29,.75,1.77,.5,.48,1.11,.85,1.83,1.13,.72,.27,1.78,.62,3.18,1.03,1.87,.51,3.41,1.03,4.61,1.56,1.2,.53,2.24,1.3,3.11,2.32,.87,1.02,1.33,2.38,1.36,4.07,0,1.5-.41,2.84-1.22,4.02-.81,1.18-1.96,2.11-3.44,2.78-1.48,.67-3.22,1.01-5.22,1.01s-3.85-.38-5.45-1.13Z"/><path class="b" d="M512.83,278.49c1.58-.81,3.33-1.22,5.27-1.22,2.28,0,4.34,.56,6.18,1.68,1.84,1.12,3.29,2.71,4.35,4.77,1.06,2.06,1.59,4.41,1.59,7.06s-.53,5.02-1.59,7.11c-1.06,2.09-2.52,3.72-4.38,4.88-1.86,1.17-3.91,1.75-6.15,1.75-2,0-3.77-.4-5.31-1.2-1.54-.8-2.77-1.82-3.67-3.06v3.83h-5.34v-35.44h5.34v12.98c.9-1.28,2.14-2.32,3.72-3.14Zm10.86,7.57c-.73-1.32-1.7-2.33-2.9-3.02-1.2-.69-2.49-1.03-3.86-1.03s-2.61,.35-3.81,1.05c-1.2,.7-2.17,1.72-2.9,3.07-.73,1.34-1.1,2.92-1.1,4.74s.37,3.41,1.1,4.77c.73,1.36,1.7,2.39,2.9,3.09,1.2,.7,2.47,1.05,3.81,1.05s2.66-.36,3.86-1.08c1.2-.72,2.17-1.76,2.9-3.14,.73-1.37,1.1-2.97,1.1-4.79s-.37-3.39-1.1-4.72Z"/><path class="b" d="M540.1,302.82c-1.97-1.13-3.51-2.73-4.63-4.79-1.12-2.06-1.69-4.45-1.69-7.16s.58-5.06,1.73-7.14c1.15-2.07,2.73-3.67,4.73-4.79,2-1.12,4.23-1.68,6.69-1.68s4.7,.56,6.69,1.68c2,1.12,3.57,2.71,4.73,4.79,1.15,2.08,1.73,4.45,1.73,7.14s-.59,5.06-1.78,7.14c-1.19,2.08-2.8,3.68-4.84,4.81-2.04,1.13-4.3,1.7-6.76,1.7s-4.63-.57-6.6-1.7Zm10.46-4.05c1.2-.67,2.18-1.68,2.93-3.02,.75-1.34,1.12-2.97,1.12-4.88s-.36-3.54-1.08-4.86c-.72-1.32-1.67-2.32-2.86-2.99-1.19-.67-2.46-1.01-3.84-1.01s-2.64,.34-3.81,1.01-2.1,1.67-2.78,2.99c-.69,1.33-1.03,2.95-1.03,4.86,0,2.84,.71,5.04,2.13,6.58,1.42,1.55,3.21,2.32,5.36,2.32,1.37,0,2.66-.34,3.86-1.01Z"/><path class="b" d="M573.82,278.39c1.29-.75,2.83-1.13,4.61-1.13v5.65h-1.36c-2.09,0-3.67,.54-4.75,1.63-1.08,1.09-1.61,2.97-1.61,5.65v13.89h-5.34v-26.39h5.34v3.83c.78-1.34,1.82-2.39,3.11-3.14Z"/><path class="b" d="M601.81,278.56c1.61,.86,2.86,2.14,3.77,3.83,.9,1.69,1.36,3.74,1.36,6.13v15.56h-5.29v-14.75c0-2.36-.58-4.17-1.73-5.44-1.15-1.26-2.73-1.89-4.73-1.89s-3.58,.63-4.75,1.89c-1.17,1.26-1.76,3.07-1.76,5.44v14.75h-5.34v-26.39h5.34v3.02c.87-1.08,1.99-1.93,3.35-2.54,1.36-.61,2.8-.91,4.33-.91,2.03,0,3.85,.43,5.45,1.29Z"/><path class="b" d="M637.17,292.93h-19.7c.16,2.11,.92,3.8,2.29,5.08,1.37,1.28,3.06,1.92,5.05,1.92,2.87,0,4.9-1.23,6.08-3.69h5.76c-.78,2.43-2.19,4.41-4.24,5.96-2.04,1.55-4.58,2.32-7.61,2.32-2.47,0-4.67-.57-6.62-1.7-1.95-1.13-3.48-2.73-4.59-4.79-1.11-2.06-1.66-4.45-1.66-7.16s.54-5.1,1.61-7.16,2.59-3.65,4.54-4.77c1.95-1.12,4.19-1.68,6.72-1.68s4.6,.54,6.51,1.63c1.9,1.09,3.39,2.61,4.45,4.57,1.06,1.96,1.59,4.22,1.59,6.78,0,.99-.06,1.88-.19,2.68Zm-5.38-4.41c-.03-2.01-.73-3.62-2.11-4.84-1.37-1.21-3.07-1.82-5.1-1.82-1.84,0-3.42,.6-4.73,1.8-1.31,1.2-2.09,2.82-2.34,4.86h14.28Z"/></g></svg>