<?xml version="1.0" encoding="utf-8"?>
<!-- Generator: Adobe Illustrator 26.1.0, SVG Export Plug-In . SVG Version: 6.00 Build 0)  -->
<svg version="1.1" id="Capa_1" xmlns="http://www.w3.org/2000/svg" xmlns:xlink="http://www.w3.org/1999/xlink" x="0px" y="0px"
	 viewBox="0 0 1343.6 622.25" style="enable-background:new 0 0 1343.6 622.25;" xml:space="preserve">
<style type="text/css">
	.st0{fill:url(#SVGID_1_);}
	.st1{fill:#0697D6;}
	.st2{fill:#59C8E2;}
</style>
<g>
	<linearGradient id="SVGID_1_" gradientUnits="userSpaceOnUse" x1="430.9643" y1="311.1236" x2="1204.5614" y2="311.1236">
		<stop  offset="0" style="stop-color:#FF9B04"/>
		<stop  offset="1" style="stop-color:#FF5F00"/>
	</linearGradient>
	<path class="st0" d="M931.6,161.75c-7.62,0-13.64-2.46-18.04-7.39c-4.41-4.93-6.61-12.14-6.61-21.64c0-5.28,0.57-9.7,1.71-13.28
		c1.14-3.58,2.78-6.45,4.9-8.62c2.12-2.17,4.71-3.75,7.76-4.75c3.04-0.99,6.53-1.5,10.45-1.5c8.16,0,14.37,2.23,18.61,6.69
		c4.25,4.46,6.37,11.61,6.37,21.46c0,9.15-2.15,16.27-6.45,21.38S939.76,161.75,931.6,161.75z M910.21,196.41h41.31v242.25h-41.31
		V196.41z M989.59,118.65h41.31v320.01h-41.31V118.65z M1086.78,485.39c5.53-1.35,10.27-3.9,14.25-7.65
		c3.97-3.76,7.14-8.71,9.5-14.87c2.36-6.16,3.71-13.52,4.06-22.08l-56.3-243.66h44.38l25.04,134.06l7.25,46.27h1.38l5.01-46.27
		l20.21-134.06h43l-50.08,251.23c-2.19,11.61-4.98,21.75-8.38,30.44c-3.4,8.68-7.6,15.89-12.61,21.64
		c-5.01,5.74-10.96,10.05-17.87,12.93c-6.91,2.87-14.97,4.31-24.18,4.31c-7.49,0-15.14-1.47-22.97-4.4l0.17-27.27
		C1075.21,486.94,1081.26,486.74,1086.78,485.39z M533.03,171.54v-36.4H430.96v0v36.4v102.48h0v36.4h0v128.23h36.4V310.43h41.21
		v-36.4h-41.21V171.54H533.03z M860.23,210.34c-11.44-11.08-35.39-18.05-53.09-11.8c-13.31,4.71-20.15,13.55-22.72,17.65
		c-1.54-1.93-3.3-3.88-5.35-5.86c-11.44-11.08-35.39-18.05-53.09-11.8c-8.24,2.91-13.98,7.41-17.78,11.39l-6.14-9.89h-22.45
		l-2.29,1.97v42v194.65h36.68V256.1c0.03-2.22,0.53-11.29,6.3-16.55c6.62-6.03,13.53-6.03,16.84-6.18
		c3.31-0.15,11.32,1.18,16.69,6.76c3.78,3.93,4.52,8.69,4.64,11.2v187.33h36.68V256.09c0.03-2.23,0.53-11.29,6.3-16.55
		c6.62-6.03,13.53-6.03,16.84-6.18c3.31-0.15,11.32,1.18,16.69,6.76c3.78,3.93,4.52,8.69,4.64,11.2v187.33h36.68V244.01
		C874.63,231.46,871.67,221.43,860.23,210.34z M642.94,249v-1.32h-0.05c-0.33-6.22-2.16-19.8-11.45-30.84
		c-12.48-14.83-23.89-19.3-41.08-19.42c-17.19-0.12-32.13,4.47-42.02,15.07c-9.89,10.59-12.48,16.48-12.48,16.48l29.66,20.25
		c0,0,5.41-10.95,14.83-14.6c9.42-3.65,24.6,0,25.6,13.07v19.2c-5.58,5.55-13.79,12.72-25.73,21.23
		c-29.29,20.87-48.05,46.52-52.26,73.32c-4.21,26.8,1.34,58.97,21.44,73.32c17.84,12.74,47.68,13.35,62.35-7.92v0.25l6.24,11.56
		h22.35l2.6-2.51v-9.47v-2.95V251.09C642.94,251.09,642.97,250.32,642.94,249z M602.89,390.15c-3.8,7.65-9.98,14.93-20.06,15.16
		c-18.67,0.42-23.48-15.42-22.92-29.28c0.57-13.86,5.38-26.59,20.23-42.01c7.02-7.29,15.61-13.6,22.75-18.26V390.15z"/>
	<path class="st1" d="M237.24,196.95h44.31c2.38,0.63,4.17,2.85,3.92,5.38c0,29.81,0.01,59.63-0.01,89.44
		c-0.05,17.17,0.16,34.35-0.1,51.52c-17.14,0.15-34.27,0-51.41,0.07c-29.87-0.01-59.74,0.03-89.62-0.02
		c-2.85,0.21-5.48-2.28-5.25-5.17c-0.05-13.63-0.02-27.27-0.02-40.91c-0.32-2.98,2.23-5.78,5.27-5.49
		c29.86-0.04,59.72-0.02,89.58-0.01c0.14-30.08-0.03-60.15,0.08-90.22C233.84,199.4,235.68,198.05,237.24,196.95L237.24,196.95z"/>
	<path class="st2" d="M285.47,291.77c29.87-0.02,59.76-0.05,89.63,0.02c2.47-0.25,4.25,1.64,5.37,3.59v44.66
		c-1.29,1.68-2.93,3.53-5.27,3.29c-29.9,0.1-59.8-0.05-89.7,0.08c-0.05,29.63-0.02,59.26-0.02,88.9c0.02,1.64-0.24,3.44-1.57,4.56
		c-1.35,1.47-3.47,1.29-5.27,1.33c-13.14-0.06-26.28,0.01-39.41-0.03c-2.85,0.32-5.52-2.22-5.26-5.09
		c-0.02-29.91,0.01-59.81-0.02-89.71c17.14-0.07,34.27,0.08,51.41-0.07C285.63,326.12,285.42,308.94,285.47,291.77L285.47,291.77z"
		/>
</g>
</svg>
