<svg id="Capa_1" data-name="Capa 1" xmlns="http://www.w3.org/2000/svg" viewBox="0 0 80 80"><defs><style>.cls-1{fill:#ff7c27;}</style></defs><path class="cls-1" d="M56.67,13.54A25,25,0,0,0,23,50.51,17.39,17.39,0,0,1,28.89,63.2v.45A10.27,10.27,0,0,0,39.15,73.91h1.72A10.28,10.28,0,0,0,51.13,63.65V62.12A14.78,14.78,0,0,1,56.5,51a25,25,0,0,0,2.33-35.28,23.39,23.39,0,0,0-2.16-2.18ZM40.87,68.35H39.15a4.7,4.7,0,0,1-4.7-4.7s0-.72,0-.86H45.57v.86A4.71,4.71,0,0,1,40.87,68.35Zm12-21.52a21.31,21.31,0,0,0-6.57,10.4H42.79v-20a8.36,8.36,0,0,0,5.56-7.83,2.78,2.78,0,0,0-5.56,0,2.78,2.78,0,0,1-5.56,0,2.78,2.78,0,1,0-5.56,0,8.34,8.34,0,0,0,5.56,7.83v20H33.55a24,24,0,0,0-6.8-10.79A19.44,19.44,0,0,1,40,12.75,19.16,19.16,0,0,1,53,17.69a19.44,19.44,0,0,1,1.58,27.45,21,21,0,0,1-1.71,1.69Z"/></svg>