<svg id="Capa_1" data-name="Capa 1" xmlns="http://www.w3.org/2000/svg" viewBox="0 0 80 80"><defs><style>.cls-1{fill:#ff9b04;}</style></defs><path class="cls-1" d="M56.67,13A25,25,0,0,0,23,50a17.41,17.41,0,0,1,5.93,12.7v.45A10.25,10.25,0,0,0,39.15,73.36h1.72A10.27,10.27,0,0,0,51.13,63.11V61.58A14.78,14.78,0,0,1,56.5,50.46a25,25,0,0,0,2.33-35.28A22.33,22.33,0,0,0,56.67,13ZM40.87,67.8H39.15a4.69,4.69,0,0,1-4.7-4.69s0-.73,0-.87H45.57v.87A4.71,4.71,0,0,1,40.87,67.8Zm12-21.52a21.4,21.4,0,0,0-6.57,10.4H42.79v-20a8.35,8.35,0,0,0,5.56-7.83,2.78,2.78,0,0,0-5.56,0,2.78,2.78,0,1,1-5.56,0,2.78,2.78,0,1,0-5.56,0,8.33,8.33,0,0,0,5.56,7.83v20H33.55a24,24,0,0,0-6.8-10.79,19.45,19.45,0,0,1,11-33.56A22,22,0,0,1,40,12.2,19.21,19.21,0,0,1,53,17.15a19.41,19.41,0,0,1-.13,29.13Z"/></svg>